<svg width="13" height="13" viewBox="0 0 13 13" fill="none" xmlns="http://www.w3.org/2000/svg">
<path d="M9.8507 0.391357L1.8107 0.391357C1.07064 0.391357 0.470703 0.991296 0.470703 1.73136L0.470703 11.1114C0.470703 11.8514 1.07064 12.4514 1.8107 12.4514L11.1907 12.4514C11.9277 12.4514 12.5307 11.8484 12.5307 11.1114L12.5307 3.07136L9.8507 0.391357ZM6.5007 11.1114C5.3885 11.1114 4.4907 10.2136 4.4907 9.10136C4.4907 7.98916 5.3885 7.09136 6.5007 7.09136C7.6129 7.09136 8.5107 7.98916 8.5107 9.10136C8.5107 10.2136 7.6129 11.1114 6.5007 11.1114ZM8.5107 4.41136L1.8107 4.41136L1.8107 1.73136L8.5107 1.73136L8.5107 4.41136Z" fill="white"/>
</svg>
