<svg width="48" height="41" viewBox="0 0 48 41" fill="none" xmlns="http://www.w3.org/2000/svg">
<path d="M24 3.83386C12.94 3.83386 4 11.2839 4 20.5005C4 29.7172 12.94 37.1672 24 37.1672C35.06 37.1672 44 29.7172 44 20.5005C44 11.2839 35.06 3.83386 24 3.83386ZM24 33.8339C15.18 33.8339 8 27.8505 8 20.5005C8 13.1505 15.18 7.1672 24 7.1672C32.82 7.1672 40 13.1505 40 20.5005C40 27.8505 32.82 33.8339 24 33.8339ZM31.18 12.1672L24 18.1505L16.82 12.1672L14 14.5172L21.18 20.5005L14 26.4839L16.82 28.8339L24 22.8505L31.18 28.8339L34 26.4839L26.82 20.5005L34 14.5172L31.18 12.1672Z" fill="white"/>
</svg>
