<svg width="722" height="391" viewBox="0 0 722 391" fill="none" xmlns="http://www.w3.org/2000/svg">
<path d="M341.645 228.756C349.347 230.316 364.323 229.517 368.769 228.932C368.906 227.372 368.672 212.415 368.867 209.042C368.867 208.866 369.159 208.769 369.159 208.769C380.191 207.993 391.255 207.772 402.309 208.106C402.309 195.002 402.309 181.742 402.602 168.501C402.6 168.453 402.61 168.405 402.63 168.361C402.65 168.317 402.681 168.278 402.718 168.248C402.756 168.217 402.801 168.196 402.848 168.186C402.895 168.176 402.945 168.177 402.992 168.189C423.291 167.487 438.092 167.78 438.209 167.994C438.423 169.398 438.774 182.541 438.657 185.544C444.615 178.995 451.813 173.692 459.834 169.944C461.736 169.333 463.508 168.374 465.06 167.117C465.502 166.722 465.837 166.221 466.035 165.663C466.233 165.104 466.286 164.504 466.191 163.919C464.495 157.445 454.374 154.169 451.41 151.926C449.581 150.705 448.012 149.134 446.794 147.303C445.576 145.472 444.732 143.418 444.312 141.26C444.196 139.177 444.787 137.115 445.989 135.41C447.257 133.46 445.248 133.089 443.864 131.88C445.145 131.901 446.408 132.193 447.569 132.738C447.123 132.032 446.87 131.222 446.832 130.388C446.794 129.554 446.974 128.724 447.354 127.98C447.257 128.604 447.312 129.243 447.516 129.841C447.72 130.438 448.066 130.978 448.524 131.412C448.417 129.828 448.896 128.26 449.87 127.005C454.881 120.473 465.47 119.069 473.133 118.64C472.938 103.04 473.133 62.3628 473.133 57.8388C455.583 58.6188 438.033 59.4768 420.327 60.1788C421.575 87.6543 421.887 115.305 421.088 142.917C421.085 142.965 421.071 143.011 421.047 143.051C421.023 143.092 420.99 143.127 420.949 143.152C420.909 143.176 420.863 143.191 420.816 143.195C420.769 143.198 420.721 143.19 420.678 143.171C411.825 143.502 389.849 144.263 387.704 144.321C386.807 156.431 386.553 168.755 386.729 181.059C386.724 181.149 386.684 181.233 386.619 181.295C386.554 181.357 386.467 181.391 386.378 181.391C377.554 181.957 368.705 181.996 359.877 181.508C359.585 181.508 359.565 181.02 359.877 181.02C364.343 181.02 381.776 181.02 386.027 180.728C385.705 168.466 386.043 156.196 387.04 143.97C395.055 142.683 418.026 142.703 420.503 142.644C421.049 115.13 420.912 87.4593 419.645 59.8473C419.644 59.7575 419.679 59.671 419.74 59.6057C419.802 59.5405 419.886 59.5013 419.976 59.4963C420.171 59.4963 473.387 57.2733 473.582 57.3708C473.652 57.3849 473.715 57.4245 473.758 57.4821C473.801 57.5397 473.822 57.6111 473.816 57.6828V118.659C477.911 119.166 476.351 122.774 477.384 124.782C477.833 125.621 478.203 125.27 478.925 125.757C480.875 127.025 480.699 135.507 480.621 137.75C482.571 142.8 484.092 150.093 480.426 154.11C479.783 154.812 478.652 155.397 478.301 156.314C478.235 156.625 478.238 156.946 478.309 157.256C478.38 157.565 478.517 157.856 478.71 158.108C479.455 159.486 480.597 160.608 481.988 161.328C483.379 162.048 484.955 162.333 486.51 162.144C498.756 161.169 503.885 163.061 506.556 163.821C514.585 167.461 522.152 172.043 529.098 177.471C529.425 177.848 529.642 178.307 529.728 178.798C529.814 179.289 529.765 179.794 529.586 180.26C531.536 181.059 533.486 182.21 535.319 183.126C536.469 179.421 541.695 161.54 541.988 160.76C540.804 160.02 539.799 159.028 539.043 157.854C537.093 157.854 536.664 157.971 536.528 157.679C535.026 154.344 534.051 150.776 532.433 147.48C530.639 147.48 512.211 146.544 504.821 145.901C504.821 145.901 494.408 147.851 493.881 148.026C493.911 148.434 493.847 148.842 493.695 149.221C493.543 149.601 493.307 149.94 493.005 150.215C492.702 150.489 492.341 150.691 491.949 150.805C491.557 150.919 491.144 150.942 490.742 150.873C488.558 150.62 487.271 148.65 486.393 146.856C485.33 144.82 484.762 142.562 484.736 140.265C484.736 135.78 487.115 134.259 488.948 134.415C489.429 134.394 489.903 134.536 490.293 134.82C490.683 135.103 490.965 135.511 491.093 135.975C492.419 135.741 500.706 134.142 500.843 134.025C505.445 129.189 517.379 118.698 517.379 118.659C517.691 107.603 517.281 78.0603 517.164 74.6868C517.169 74.5952 517.207 74.5087 517.272 74.4438C517.337 74.379 517.423 74.3405 517.515 74.3358C539.921 74.7648 545.439 73.6143 545.42 74.6283C545.166 80.2638 545.205 97.1898 545.303 97.1313C559.752 87.5568 582.879 65.6778 582.489 65.9313C582.723 65.1708 583.835 62.1288 584.166 61.3683C584.166 61.2513 595.145 57.8973 597.465 57.4683C598.526 57.4557 599.571 57.732 600.488 58.2678C603.387 60.2237 605.856 62.752 607.742 65.6973C625.019 88.8633 631.512 115.52 627.924 139.31C627.551 142.652 626.738 145.931 625.506 149.06C625.013 150.051 624.281 150.904 623.375 151.541C622.469 152.178 621.419 152.578 620.319 152.706C618.369 153.135 608.912 154.169 606.669 153.623C605.323 152.822 604.021 151.95 602.769 151.01C596.919 151.127 580.637 150.269 578.297 150.152C578.862 161.072 578.784 189.035 578.667 192.057C587.852 191.862 611.213 191.862 613.767 191.784C613.767 186.519 613.338 180.767 613.572 175.424C613.884 174.936 614.469 174.917 614.976 174.878C619.364 174.624 637.869 174.039 642.062 174.41C642.9 174.41 641.886 174.156 642.062 196.874H674.334C674.427 196.874 674.516 196.911 674.582 196.977C674.648 197.042 674.685 197.132 674.685 197.225C674.685 211.908 674.958 226.728 674.685 241.529H702.765C702.832 241.529 702.897 241.555 702.944 241.603C702.992 241.651 703.019 241.715 703.019 241.782C703.019 241.85 702.992 241.914 702.944 241.962C702.897 242.009 702.832 242.036 702.765 242.036C683.733 242.27 664.604 242.465 645.494 242.387C645.123 242.387 645.006 243.732 645.104 217.68C633.404 217.68 621.704 217.973 609.867 217.68C609.867 226.455 610.121 235.23 610.004 244.005C613.459 242.393 617.385 242.101 621.041 243.186C629.543 245.429 627.885 251.805 628.119 252.761C628.548 254.087 629.796 253.736 631.22 254.106C632.838 254.55 634.308 255.418 635.478 256.622C636.647 257.825 637.473 259.32 637.869 260.951C641.769 260.775 644.226 260.951 646.118 264.324C647.153 263.144 648.442 262.214 649.888 261.602C651.333 260.991 652.899 260.714 654.467 260.793C656.034 260.872 657.564 261.304 658.941 262.057C660.319 262.811 661.508 263.866 662.42 265.143C665.852 264.012 668.894 267.093 670.376 270.194C672.872 275.517 668.718 278.462 668.426 279.242L679.346 279.105C679.619 279.105 679.619 279.515 679.346 279.534C675.621 279.534 640.502 280.88 556.496 279.671C565.778 299.99 566.987 334.271 567.533 356.501C566.441 356.98 565.313 357.371 564.159 357.671C564.159 359.172 564.042 360.732 564.042 362.702C565.778 363.696 571.218 366.933 571.511 367.304C571.803 367.674 572.037 369.059 571.16 369.254C566.899 369.368 562.635 369.25 558.387 368.903C558.639 365.324 558.175 361.731 557.022 358.334C554.598 358.374 552.175 358.25 549.768 357.963C537.386 330.273 535.728 316.038 531.497 306.522C527.304 303.383 516.95 292.248 512.094 287.802C511.336 280.429 511.231 273.003 511.782 265.611C511.782 265.28 511.373 264.987 511.061 265.611C510.437 266.918 509.715 271.656 510.398 284.487C510.671 289.791 512.523 300.516 507.902 314.732C503.778 325.898 497.339 336.066 489.006 344.567L472.88 360.83C471.789 360.632 470.714 360.359 469.662 360.011C469.565 360.128 466.601 363.911 466.445 363.911C466.465 364.997 466.803 366.054 467.416 366.951C468.029 367.849 468.891 368.547 469.896 368.961C470.481 369.195 470.189 370.911 469.74 370.911C467.662 371.028 465.578 371.028 463.5 370.911C461.864 369.064 460.352 367.11 458.976 365.061C458.976 364.749 462.876 359.621 463.578 356.949C462.802 356.425 462.066 355.845 461.375 355.214C468.593 338.611 474.958 321.65 480.446 304.397C476.877 298.176 470.501 286.125 469.604 279.378C426.938 281.328 390.843 283.805 349.211 279.632C348.899 279.632 348.899 279.125 349.211 279.144L354.144 279.573C355.262 276.587 357.025 273.884 359.307 271.656C361.589 269.428 364.333 267.73 367.346 266.684C372.162 265.104 373.039 266.937 374.483 264.968C376.364 262.087 379.146 259.909 382.394 258.774C385.642 257.638 389.175 257.608 392.442 258.689C391.74 251.025 397.259 243.849 405.858 244.824C404.907 241.809 405.044 238.555 406.245 235.63C407.446 232.704 409.634 230.293 412.43 228.815C411.718 226.56 411.634 224.154 412.187 221.856C412.74 219.557 413.91 217.453 415.569 215.769C416.452 214.597 417.672 213.72 419.065 213.257C420.458 212.794 421.959 212.766 423.369 213.176C425.395 209.481 427.886 206.06 430.779 202.997C430.134 202.163 429.542 201.29 429.005 200.384C431.416 195.114 434.539 190.2 438.286 185.778C438.286 185.778 437.702 169.632 437.663 168.228C428.693 168.033 405.741 168.755 403.245 168.716C403.245 179.012 403.148 205.454 403.05 208.379C403.046 208.439 403.028 208.497 402.996 208.549C402.965 208.6 402.921 208.643 402.869 208.674C402.817 208.705 402.759 208.722 402.698 208.725C402.638 208.728 402.578 208.716 402.524 208.691C386.339 208.184 373.137 209.159 369.471 209.217C369.471 212.61 370.076 227.801 369.471 229.283C369.471 229.458 362.451 230.901 348.431 230.199C346.91 230.043 340.338 229.868 341.645 228.756ZM558.875 362.526C560.415 362.35 561.968 362.311 563.516 362.409C563.516 362.214 563.691 358.509 563.75 357.768C561.74 358.076 559.716 358.277 557.685 358.373C557.919 358.997 558.836 362.448 558.875 362.526ZM464.144 357.378L462.057 361.278C462.681 361.629 464.709 362.936 465.957 363.677C465.957 363.482 469.058 359.777 469.136 359.777C467.42 359.089 465.752 358.288 464.144 357.378ZM486.081 163.158C485.425 163.139 484.773 163.061 484.131 162.924C483.017 162.841 481.934 162.519 480.955 161.981C479.976 161.443 479.124 160.7 478.457 159.804C473.816 153.116 483.429 156.684 481.284 143.97C480.211 138.785 478.28 133.816 475.571 129.267C474.067 131.184 472.184 132.77 470.04 133.928C467.897 135.085 465.538 135.789 463.11 135.995C461.511 135.995 462.974 139.739 462.311 142.956C461.823 145.238 459.308 143.561 457.845 144.906C457.396 145.34 457.08 145.894 456.935 146.502C456.789 147.11 456.821 147.747 457.026 148.337C457.231 148.928 457.601 149.447 458.091 149.834C458.582 150.221 459.173 150.46 459.795 150.522C460.798 152.867 461.657 155.27 462.369 157.718C464.757 159.34 466.415 161.831 466.991 164.66C466.832 165.586 466.458 166.462 465.899 167.217C465.34 167.972 464.612 168.586 463.773 169.008C466.595 172.096 470.439 174.056 474.596 174.527C476.857 174.915 479.181 174.686 481.323 173.864C485.34 172.089 486.803 167.448 486.081 163.158ZM542.826 160.623C542.67 161.618 537.113 180.006 535.943 183.867C535.104 184.55 531.419 181.508 529.449 180.942C528.469 188.501 525.343 195.62 520.44 201.456C530.19 209.529 537.308 210.563 538.497 210.602C539.675 210.655 540.849 210.426 541.92 209.934C542.992 209.442 543.931 208.702 544.659 207.774C547.533 204.301 549.311 200.052 549.768 195.567C551.523 184.394 550.977 172.694 550.802 161.286C550.525 161.387 550.224 161.402 549.939 161.329C549.653 161.256 549.397 161.098 549.203 160.877C548.189 162.593 546.902 162.281 546.2 161.13C544.718 163.275 542.651 160.194 542.163 157.718C542.163 157.718 540.525 157.854 539.726 157.874C540.486 159.375 542.885 160.253 542.826 160.623ZM548.364 154.442C548.364 154.169 547.779 153.837 547.545 153.818C547.302 153.826 547.07 153.92 546.891 154.085C546.712 154.25 546.598 154.473 546.57 154.715C546.57 155.027 546.102 155.183 545.966 154.89C545.855 154.675 545.695 154.488 545.499 154.346C545.303 154.203 545.075 154.109 544.836 154.071C544.597 154.033 544.352 154.052 544.121 154.127C543.89 154.201 543.68 154.329 543.509 154.5C541.227 156.45 544.269 162.008 545.459 161.111C545.693 160.935 546.083 160.818 545.927 159.453C545.927 159.122 546.434 159.18 546.551 159.453C546.551 160.994 547.155 161.403 547.623 161.403C548.091 161.403 548.403 160.994 548.618 160.682C548.733 160.201 548.733 159.7 548.618 159.219C548.618 158.829 549.164 158.654 549.242 159.063C549.339 159.56 549.51 160.04 549.749 160.487C549.821 160.577 549.916 160.646 550.024 160.687C550.132 160.727 550.248 160.738 550.362 160.718C550.476 160.698 550.582 160.648 550.669 160.573C550.757 160.498 550.823 160.401 550.86 160.292C551.265 158.407 551.198 156.451 550.665 154.598C550.601 154.398 550.481 154.222 550.318 154.09C550.155 153.958 549.957 153.877 549.749 153.857C549.456 153.857 549.047 154.344 549.047 154.403C548.988 154.91 548.345 154.91 548.364 154.442ZM537.152 157.074C538.556 157.074 540.252 157.074 542.085 157.211C541.676 153.642 544.757 152.628 546.141 154.013C546.265 153.78 546.445 153.582 546.666 153.438C546.887 153.294 547.141 153.208 547.403 153.189C547.666 153.169 547.93 153.217 548.17 153.327C548.409 153.437 548.617 153.606 548.774 153.818C548.891 153.679 549.036 153.565 549.198 153.482C549.361 153.4 549.538 153.351 549.72 153.338C549.901 153.326 550.084 153.349 550.256 153.408C550.429 153.467 550.588 153.56 550.724 153.681C551.484 154.305 551.543 155.631 551.66 156.879H558.095C558.485 155.748 560.552 150.581 560.922 149.274L533.349 147.578C533.915 149.06 536.352 155.456 537.152 157.074ZM485.769 142.995C486.491 145.745 487.953 150.308 491.619 150.191C492.073 150.108 492.483 149.866 492.776 149.509C493.069 149.152 493.226 148.703 493.218 148.241C492.863 148.295 492.501 148.295 492.146 148.241C490.566 147.084 489.356 145.494 488.664 143.662C487.971 141.831 487.826 139.838 488.246 137.925C488.246 137.555 488.616 136.385 488.87 136.346L490.82 136.034C488.616 133.245 484.19 136.131 485.769 142.995ZM544.737 74.9598C544.523 74.9598 526.661 75.1938 517.847 75.1548C518.471 89.4288 518.607 103.898 518.003 118.308C526.563 111.21 535.767 104.366 544.796 97.5603C544.776 97.3848 544.581 78.8598 544.737 74.9598ZM623.517 150.386C625.467 148.338 626.013 145.257 626.52 142.586C630.674 121.136 626.111 98.5548 615.522 79.5423C613.845 76.5003 606.084 63.5328 600.234 59.0673C597.855 57.2343 594.833 59.6328 593.487 62.1288C591.147 66.4773 590.796 85.6653 591.225 91.9248C594.699 90.634 598.488 90.4568 602.067 91.4178C620.417 96.6828 618.857 124.685 598.167 124.802C599.571 128.702 605.421 142.956 615.717 150.6C616.826 151.507 618.225 151.984 619.657 151.945C621.089 151.905 622.459 151.352 623.517 150.386ZM607.098 153.155C607.469 153.038 615.249 152.823 618.213 152.531C615.537 151.592 613.156 149.964 611.31 147.812C599.103 135.878 593.585 116.358 591.245 99.4713C589.71 87.9414 589.927 76.2458 591.888 64.7808C592.315 62.5236 593.385 60.4379 594.969 58.7748C593.585 59.2233 585.063 61.8558 584.576 61.8948C578.433 77.6313 578.024 95.5128 581.807 112.049C582.587 115.149 583.601 118.23 584.595 121.272C588.749 134.61 595.106 145.959 607.098 153.155ZM602.204 150.561C579.389 132.66 574.904 89.5653 582.138 66.8868C557.802 92.3538 525.588 109.319 501.369 134.649C501.213 134.805 491.034 136.716 488.987 137.048C488.459 138.955 488.502 140.975 489.112 142.857C489.723 144.74 490.872 146.402 492.419 147.636C493.277 147.285 504.665 145.257 504.821 145.238C511.256 145.296 599.259 150.405 602.204 150.561ZM645.513 216.959C645.57 216.959 645.627 216.974 645.676 217.002C645.726 217.03 645.768 217.071 645.797 217.12C645.827 217.169 645.843 217.225 645.844 217.282C645.846 217.339 645.832 217.396 645.806 217.446C645.806 225.344 646.079 233.651 645.806 241.743C652.982 241.568 671.955 241.509 673.944 241.509C673.71 230.219 673.944 200.715 673.944 197.537H641.711C641.654 197.538 641.599 197.526 641.549 197.5C641.499 197.474 641.456 197.436 641.425 197.389C641.394 197.343 641.375 197.289 641.37 197.232C641.366 197.176 641.375 197.12 641.399 197.069C641.184 189.951 641.399 182.444 641.555 175.092C634.476 174.819 616.712 175.736 614.898 175.853C613.553 175.853 614.372 174.858 614.333 192.33C614.333 192.486 614.001 192.681 613.923 192.681C602.223 193.5 590.309 192.681 578.394 192.818C577.049 193.266 578.531 189.249 577.731 150.249L561.507 149.333C561.039 150.62 558.953 155.963 558.602 157.445C558.575 157.53 558.523 157.605 558.454 157.66C558.385 157.716 558.3 157.749 558.212 157.757H551.523C551.706 158.915 551.522 160.101 550.997 161.15C552.81 189.171 550.451 196.25 550.256 196.952C552.332 196.288 554.567 196.309 556.632 197.011C558.696 197.713 560.48 199.059 561.722 200.852C563.065 199.871 564.669 199.31 566.331 199.241C567.993 199.172 569.638 199.598 571.057 200.464C572.477 201.331 573.608 202.599 574.307 204.109C575.005 205.618 575.24 207.301 574.982 208.944C574.982 209.783 575.762 209.958 576.483 209.997C584.595 209.646 589.743 215.847 588.651 221.931C589.853 222.863 590.693 224.184 591.027 225.668C591.362 227.152 591.17 228.705 590.484 230.063C593.195 231.233 596.334 233.105 596.334 236.42C596.435 237.378 596.164 238.338 595.575 239.1C594.987 239.863 594.127 240.37 593.175 240.515C592.259 240.632 591.225 240.515 590.445 241.158C590.081 241.904 589.506 242.526 588.792 242.949C588.079 243.371 587.257 243.576 586.428 243.537C586.392 244.15 586.488 244.763 586.71 245.335C586.932 245.907 587.275 246.425 587.715 246.852C587.715 246.852 589.802 246.365 590.718 246.014C591.598 245.685 592.568 245.685 593.448 246.014C594.477 246.413 595.604 246.485 596.676 246.219C597.747 245.954 598.711 245.365 599.435 244.532C600.585 242.582 602.652 239.286 605.285 241.412C605.601 241.689 605.848 242.036 606.006 242.426C606.006 245.955 608.054 244.844 609.048 244.376C608.795 235.367 608.853 226.377 608.834 217.368C609.107 216.842 607.332 216.881 645.513 216.959ZM555.969 278.715C558.758 278.715 633.248 279.593 667.763 279.242C668.387 277.292 671.195 275.556 670.142 271.734C669.089 267.912 665.832 264.539 662.225 265.884C662.144 265.912 662.056 265.91 661.977 265.877C661.898 265.845 661.834 265.785 661.796 265.709C660.956 264.541 659.869 263.573 658.611 262.875C657.354 262.177 655.958 261.765 654.523 261.67C653.087 261.575 651.649 261.799 650.311 262.325C648.972 262.851 647.767 263.667 646.781 264.714C646.371 265.065 646.235 265.592 645.689 264.87C644.382 261.731 640.677 261.282 637.44 261.614C637.361 261.609 637.285 261.581 637.222 261.532C637.159 261.483 637.113 261.417 637.089 261.341C636.716 259.332 635.603 257.537 633.969 256.31C632.253 255.232 630.311 254.565 628.295 254.36C627.998 254.066 627.769 253.712 627.621 253.322C627.473 252.932 627.41 252.514 627.437 252.098C627.506 250.405 627.009 248.738 626.023 247.36C625.038 245.983 623.62 244.973 621.996 244.493C614.606 242.192 608.346 245.955 607.352 245.799C606.357 245.643 605.948 244.844 605.85 243.849C605.85 243.264 605.948 241.724 603.9 241.509C601.853 241.295 601.209 243.869 600.293 245.058C599.596 245.896 598.679 246.522 597.645 246.867C596.612 247.211 595.503 247.26 594.443 247.008C593.097 246.794 592.668 246.306 591.206 246.872C590.135 247.21 589.029 247.426 587.91 247.515C587.264 247.004 586.76 246.336 586.446 245.575C586.132 244.814 586.018 243.985 586.116 243.167C586.117 243.122 586.129 243.079 586.149 243.04C586.17 243.001 586.199 242.966 586.235 242.94C586.271 242.914 586.312 242.896 586.355 242.888C586.399 242.88 586.444 242.882 586.487 242.894C586.998 243 587.528 242.973 588.027 242.816C588.525 242.659 588.975 242.377 589.334 241.997C589.938 241.334 590.192 240.495 591.128 240.183C592.064 239.871 593.078 240.066 593.916 239.793C594.447 239.515 594.906 239.119 595.259 238.635C595.611 238.151 595.848 237.592 595.95 237.002C596.052 236.411 596.016 235.806 595.846 235.231C595.676 234.657 595.376 234.129 594.969 233.69C593.642 232.178 591.94 231.042 590.036 230.394C589.969 230.357 589.92 230.296 589.898 230.223C589.876 230.15 589.884 230.072 589.919 230.004C590.682 228.738 590.937 227.229 590.633 225.782C590.329 224.335 589.489 223.057 588.281 222.204C588.228 222.173 588.187 222.126 588.162 222.07C588.138 222.014 588.131 221.952 588.144 221.892C589.392 216.159 584.244 210.855 578.394 210.543C575.664 210.699 573.89 210.29 574.494 207.189C574.399 205.863 573.984 204.579 573.284 203.448C572.585 202.318 571.621 201.373 570.477 200.696C567.669 198.921 564.12 200.072 561.468 201.359C560.276 199.58 558.537 198.237 556.514 197.534C554.491 196.83 552.295 196.804 550.256 197.459C550.139 197.459 548.052 209.861 539.882 211.284C538.79 211.479 532.569 211.616 520.791 202.938C521.864 206.292 526.758 224.213 527.636 229.361C527.87 230.823 526.68 231.564 525.686 232.227C530.522 239.696 547.857 261.341 555.969 278.715ZM414.575 218.07C413.525 219.664 412.856 221.478 412.619 223.371C412.382 225.265 412.584 227.187 413.21 228.99C413.238 229.074 413.237 229.165 413.205 229.247C413.172 229.329 413.112 229.397 413.034 229.439C403.167 234.743 406.638 245.039 406.638 245.039C408.188 245.411 409.63 246.139 410.85 247.164C411.045 247.359 410.85 247.652 410.538 247.476C409.153 246.393 407.514 245.682 405.778 245.409C404.041 245.136 402.263 245.311 400.613 245.916C398.032 246.96 395.884 248.852 394.523 251.28C393.162 253.708 392.669 256.528 393.125 259.274C380.957 256.31 375.575 264.519 375.165 265.124C373.917 266.918 373.469 266.684 371.265 266.762C363.972 267.093 357.615 273.099 354.592 279.671C392.696 282.537 431.013 280.256 469.194 278.579C466.156 268.169 464.516 257.402 464.319 246.56C463.58 246.433 462.851 246.257 462.135 246.033C461.633 245.116 461.265 244.131 461.043 243.108C459.093 233.105 455.895 222.926 455.193 212.493C452.678 214.81 449.941 216.874 447.023 218.655C446.789 218.772 446.048 218.168 445.814 218.012C443.765 219.238 441.81 220.613 439.964 222.126C436.571 225.675 438.014 229.283 437.117 242.835C436.239 257.265 434.933 260.756 435.342 261.926C435.947 263.466 441.699 264.636 437.117 265.826C436.59 265.826 434.933 265.358 435.167 266.43C435.771 267.425 437.117 269.355 434.932 269.862C434.615 269.897 434.296 269.813 434.036 269.628C434.008 269.957 433.862 270.264 433.626 270.493C433.389 270.723 433.078 270.859 432.749 270.876C432.393 270.891 432.041 270.794 431.743 270.598C431.446 270.402 431.218 270.117 431.091 269.784C431.018 269.986 430.893 270.164 430.728 270.301C430.564 270.438 430.366 270.529 430.155 270.564C427.952 270.408 428.069 267.308 427.503 265.416C426.977 261.75 426.879 257.616 424.832 253.989C419.742 240.339 416.349 226.689 422.882 213.936C421.252 213.667 419.579 213.923 418.103 214.666C416.628 215.409 415.426 216.601 414.672 218.07H414.575ZM426.606 256.037C427.62 258.26 428.556 267.152 428.79 267.737C429.024 268.322 429.356 270.486 430.506 269.414C430.662 269.072 430.716 268.693 430.662 268.322C430.662 267.951 431.169 267.971 431.228 268.322C431.228 269.024 431.637 270.018 432.495 270.096C433.938 270.096 433.372 268.283 433.411 268.146C433.429 268.079 433.468 268.02 433.522 267.977C433.577 267.935 433.644 267.912 433.714 267.912C433.783 267.912 433.85 267.935 433.905 267.977C433.96 268.02 433.999 268.079 434.016 268.146C434.016 268.283 434.153 269.628 435.206 269.043C435.654 268.77 435.596 268.322 435.381 267.932C435.167 267.542 434.582 266.976 434.484 266.352C434.449 266.089 434.5 265.821 434.63 265.588C434.76 265.356 434.962 265.173 435.206 265.065C435.849 264.933 436.512 264.933 437.156 265.065C437.448 265.065 438.033 265.065 438.131 264.675C438.228 264.285 437.136 264.09 436.844 263.993C433.49 262.803 434.699 260.093 435.147 256.446C436.064 249.134 436.434 241.568 436.727 233.982V227.352C437.136 222.107 440.451 219.962 445.053 217.602C445.053 217.602 435.459 210.68 430.916 203.543C420.522 216.12 415.023 227.937 426.704 256.037H426.606ZM437.175 188.274C434.193 191.957 431.629 195.959 429.531 200.208C432.573 206.058 441.641 214.131 446.711 217.758C448.856 216.666 455.388 212.981 461.121 202.548C461.238 202.334 461.57 202.548 461.453 202.743C459.798 205.928 457.839 208.945 455.603 211.752C456.285 220.761 459.035 229.848 460.809 238.877C461.212 241.053 461.772 243.197 462.486 245.292C468.336 246.716 509.696 241.217 525.647 231.116C526.68 230.492 526.914 230.199 526.68 228.912C524.73 218.382 518.334 194.826 511.08 180.416C510.963 180.162 511.334 179.948 511.451 180.201C514.782 186.814 517.636 193.656 519.992 200.676C523.736 195.587 528.045 187.709 528.63 179.577C528.903 178.29 527.753 177.627 526.875 177.062C525.998 176.496 508.038 161.774 491.522 162.749C490.176 162.749 486.725 163.1 486.315 163.1C486.806 165.033 486.72 167.067 486.069 168.952C485.417 170.837 484.229 172.49 482.649 173.708C478.398 176.633 468.999 175.989 463.149 169.223C453.158 173.472 444.297 179.995 437.273 188.274H437.175Z" fill="black"/>
<path d="M475.005 146.72C474.961 146.709 474.92 146.687 474.888 146.655C474.855 146.624 474.831 146.584 474.819 146.54C474.807 146.496 474.808 146.45 474.82 146.406C474.832 146.362 474.855 146.323 474.888 146.291C475.258 145.96 476.194 145.979 476.194 145.296C474.866 143.554 473.434 141.893 471.904 140.324C471.729 140.129 472.002 139.817 472.197 140.012C476.331 144.165 477.15 144.77 476.721 145.862C476.555 146.161 476.302 146.404 475.996 146.557C475.69 146.71 475.344 146.767 475.005 146.72ZM476.136 139.583C475.731 139.132 475.353 138.656 475.005 138.16C474.81 137.887 475.278 137.535 475.512 137.886C475.866 138.353 476.179 138.848 476.448 139.368C476.444 139.404 476.432 139.438 476.413 139.469C476.394 139.499 476.37 139.525 476.34 139.546C476.311 139.566 476.277 139.58 476.242 139.586C476.207 139.593 476.171 139.592 476.136 139.583ZM468.667 143.659C468.395 143.659 466.23 142.157 466.717 141.709C466.78 141.647 466.864 141.612 466.952 141.612C467.039 141.612 467.123 141.647 467.186 141.709C467.459 142.177 468.901 142.976 468.882 143.659C468.849 143.677 468.812 143.687 468.775 143.687C468.737 143.687 468.7 143.677 468.667 143.659ZM472.002 153.096C471.261 153.643 469.916 152.785 469.292 151.732C468.938 151.039 468.651 150.314 468.434 149.567C468.422 149.534 468.418 149.5 468.421 149.465C468.424 149.431 468.433 149.398 468.449 149.367C468.465 149.337 468.487 149.31 468.514 149.288C468.541 149.267 468.572 149.251 468.605 149.241C468.638 149.232 468.673 149.23 468.707 149.234C468.741 149.239 468.774 149.25 468.804 149.268C468.833 149.286 468.859 149.309 468.879 149.337C468.899 149.365 468.914 149.397 468.921 149.43C469.153 149.946 469.52 150.388 469.984 150.711C470.447 151.034 470.99 151.225 471.554 151.263C472.607 151.595 472.724 152.609 472.002 153.096ZM568.273 89.7215C568.315 89.6956 568.365 89.6873 568.412 89.6982C568.46 89.7092 568.501 89.7386 568.527 89.78C568.553 89.8214 568.561 89.8713 568.55 89.9189C568.539 89.9664 568.51 90.0076 568.469 90.0335C557.315 98.3405 554.818 99.452 548.344 104.795C548.13 104.97 547.818 104.678 548.033 104.463C554.423 99.0782 561.187 94.1519 568.273 89.7215ZM533.115 116.085C532.842 116.202 532.549 115.89 532.784 115.656C533.018 115.422 538.633 111.639 539.803 110.859C540.077 110.664 540.33 111.093 540.057 111.288C538.926 112.107 533.758 115.793 533.115 116.085ZM653.723 49.337L657.623 50.3705C651.324 59.4575 640.443 68.2715 632.604 77.339C631.259 77.5925 643.719 56.942 648.536 47.114L645.279 46.8995C645.197 46.9007 645.117 46.8773 645.048 46.8324C644.98 46.7875 644.927 46.7231 644.895 46.6475C644.864 46.572 644.855 46.4887 644.872 46.4085C644.888 46.3283 644.928 46.2548 644.987 46.1975C652.146 36.7364 660.474 28.2188 669.771 20.8475C670.005 20.36 670.727 20.8475 670.493 21.257C665.676 31.0265 658.5 39.86 653.723 49.337ZM646.059 46.1195L649.179 46.295C649.254 46.2952 649.328 46.3151 649.393 46.3529C649.458 46.3906 649.512 46.4448 649.55 46.5099C649.587 46.5751 649.607 46.649 649.607 46.7243C649.607 46.7995 649.587 46.8734 649.55 46.9385C645.65 55.0505 635.471 72.7565 634.827 73.79C640.424 67.94 654.542 52.6325 656.277 50.8385L653.06 50C653 49.9813 652.945 49.9498 652.899 49.9078C652.853 49.8658 652.817 49.8142 652.792 49.7566C652.768 49.699 652.757 49.6369 652.759 49.5745C652.762 49.5122 652.778 49.4511 652.806 49.3955C656.706 41.5955 668.27 23.7725 669.128 22.0955C660.002 28.589 647.619 44.2085 646.059 46.1195ZM650.291 99.1985C650.195 99.2172 650.097 99.206 650.009 99.1663C649.92 99.1266 649.846 99.0605 649.797 98.977C649.748 98.8936 649.726 98.7969 649.734 98.7004C649.742 98.6038 649.78 98.5121 649.842 98.438C652.463 95.0209 655.518 91.9597 658.929 89.3315C652.572 88.3955 646.098 88.4345 639.741 87.3815C639.312 87.3815 639.39 86.699 639.741 86.582L679.268 73.751C679.363 73.7096 679.471 73.708 679.568 73.7463C679.665 73.7847 679.743 73.8601 679.784 73.9557C679.826 74.0514 679.827 74.1596 679.789 74.2565C679.751 74.3534 679.675 74.4311 679.58 74.4725C675.751 76.7961 672.332 79.7344 669.459 83.1695C683.07 81.8825 711.189 80.81 711.423 80.81C711.969 80.615 712.203 81.473 711.657 81.668C696.135 87.323 654.756 98.0285 650.291 99.1985ZM709.571 81.4145C695.921 81.8435 683.675 83.2475 668.621 83.9885C668.25 83.9885 668.172 83.579 668.367 83.345C670.777 80.3067 673.615 77.6335 676.791 75.4085L641.691 86.816C647.853 87.6545 654.113 87.635 660.255 88.649C660.645 88.649 660.665 89.273 660.372 89.4485C656.985 91.7977 653.996 94.6747 651.519 97.97C670.844 92.9 690.519 88.22 709.571 81.4145ZM641.321 123.008C649.452 127.044 670.844 136.151 673.242 137.067C673.339 137.098 673.422 137.161 673.477 137.247C673.531 137.333 673.553 137.436 673.539 137.536C673.525 137.637 673.476 137.73 673.4 137.797C673.324 137.865 673.227 137.904 673.125 137.906H663.687C672.15 145.706 678.176 151.556 688.179 157.406C688.452 157.562 687.38 158.088 687.087 157.952C672.789 151.049 658.954 143.226 645.669 134.533C645.045 132.875 651.519 134.142 652.65 133.791L640.95 123.671C640.443 123.339 640.931 122.813 641.321 123.008ZM653.976 133.909C654.034 133.966 654.074 134.039 654.091 134.119C654.107 134.2 654.099 134.283 654.067 134.359C654.036 134.434 653.983 134.498 653.914 134.543C653.846 134.588 653.765 134.612 653.684 134.61H647.19C658.978 142.275 671.22 149.217 683.85 155.397C676.024 150.426 668.823 144.534 662.4 137.847C662.349 137.791 662.314 137.721 662.301 137.645C662.288 137.57 662.296 137.492 662.324 137.421C662.352 137.35 662.4 137.288 662.462 137.243C662.524 137.198 662.597 137.171 662.673 137.165H670.941C663.141 134.104 645.201 125.913 643.836 125.25L653.976 133.909Z" fill="black"/>
<g clip-path="url(#clip0_1042_526)">
<path d="M400.305 228.756C392.602 230.316 377.626 229.517 373.18 228.932C373.044 227.372 373.278 212.415 373.083 209.042C373.083 208.866 372.79 208.769 372.79 208.769C361.758 207.993 350.694 207.772 339.64 208.106C339.64 195.002 339.64 181.742 339.348 168.501C339.349 168.453 339.339 168.405 339.319 168.361C339.299 168.317 339.269 168.278 339.231 168.248C339.193 168.217 339.149 168.196 339.101 168.186C339.054 168.176 339.005 168.177 338.958 168.189C318.658 167.487 303.858 167.78 303.741 167.994C303.526 169.398 303.175 182.541 303.292 185.544C297.335 178.995 290.137 173.692 282.115 169.944C280.213 169.333 278.441 168.374 276.889 167.117C276.447 166.722 276.112 166.221 275.914 165.663C275.717 165.104 275.663 164.504 275.758 163.919C277.455 157.445 287.575 154.169 290.539 151.926C292.368 150.705 293.937 149.134 295.155 147.303C296.373 145.472 297.217 143.418 297.637 141.26C297.753 139.177 297.162 137.115 295.96 135.41C294.693 133.46 296.701 133.089 298.086 131.88C296.804 131.901 295.541 132.193 294.381 132.738C294.826 132.032 295.08 131.222 295.117 130.388C295.155 129.554 294.975 128.724 294.595 127.98C294.693 128.604 294.637 129.243 294.433 129.841C294.229 130.438 293.884 130.978 293.425 131.412C293.532 129.828 293.053 128.26 292.08 127.005C287.068 120.473 276.48 119.069 268.816 118.64C269.011 103.04 268.816 62.3628 268.816 57.8388C286.366 58.6188 303.916 59.4768 321.622 60.1788C320.374 87.6543 320.062 115.305 320.862 142.917C320.864 142.965 320.878 143.011 320.902 143.051C320.926 143.092 320.96 143.127 321 143.152C321.04 143.176 321.086 143.191 321.133 143.195C321.18 143.198 321.228 143.19 321.271 143.171C330.124 143.502 352.101 144.263 354.246 144.321C355.143 156.431 355.396 168.755 355.221 181.059C355.226 181.149 355.265 181.233 355.33 181.295C355.395 181.357 355.482 181.391 355.572 181.391C364.395 181.957 373.244 181.996 382.072 181.508C382.365 181.508 382.384 181.02 382.072 181.02C377.607 181.02 360.174 181.02 355.923 180.728C356.245 168.466 355.906 156.196 354.909 143.97C346.894 142.683 323.923 142.703 321.447 142.644C320.901 115.13 321.037 87.4593 322.305 59.8473C322.305 59.7575 322.271 59.671 322.209 59.6057C322.147 59.5405 322.063 59.5013 321.973 59.4963C321.778 59.4963 268.563 57.2733 268.368 57.3708C268.297 57.3849 268.234 57.4245 268.191 57.4821C268.148 57.5397 268.127 57.6111 268.134 57.6828V118.659C264.039 119.166 265.599 122.774 264.565 124.782C264.117 125.621 263.746 125.27 263.025 125.757C261.075 127.025 261.25 135.507 261.328 137.75C259.378 142.8 257.857 150.093 261.523 154.11C262.167 154.812 263.298 155.397 263.649 156.314C263.714 156.625 263.711 156.946 263.64 157.256C263.569 157.565 263.433 157.856 263.239 158.108C262.495 159.486 261.352 160.608 259.961 161.328C258.57 162.048 256.994 162.333 255.439 162.144C243.193 161.169 238.065 163.061 235.393 163.821C227.364 167.461 219.797 172.043 212.851 177.471C212.525 177.848 212.307 178.307 212.221 178.798C212.135 179.289 212.184 179.794 212.364 180.26C210.414 181.059 208.464 182.21 206.631 183.126C205.48 179.421 200.254 161.54 199.962 160.76C201.145 160.02 202.151 159.028 202.906 157.854C204.856 157.854 205.285 157.971 205.422 157.679C206.923 154.344 207.898 150.776 209.517 147.48C211.311 147.48 229.738 146.544 237.129 145.901C237.129 145.901 247.542 147.851 248.068 148.026C248.039 148.434 248.102 148.842 248.254 149.221C248.406 149.601 248.642 149.94 248.944 150.215C249.247 150.489 249.608 150.691 250 150.805C250.392 150.919 250.805 150.942 251.208 150.873C253.392 150.62 254.679 148.65 255.556 146.856C256.619 144.82 257.187 142.562 257.214 140.265C257.214 135.78 254.835 134.259 253.002 134.415C252.52 134.394 252.046 134.536 251.656 134.82C251.266 135.103 250.984 135.511 250.857 135.975C249.531 135.741 241.243 134.142 241.107 134.025C236.505 129.189 224.571 118.698 224.571 118.659C224.259 107.603 224.668 78.0603 224.785 74.6868C224.78 74.5952 224.742 74.5087 224.677 74.4438C224.612 74.379 224.526 74.3405 224.434 74.3358C202.029 74.7648 196.51 73.6143 196.53 74.6283C196.783 80.2638 196.744 97.1898 196.647 97.1313C182.197 87.5568 159.07 65.6778 159.46 65.9313C159.226 65.1708 158.115 62.1288 157.783 61.3683C157.783 61.2513 146.805 57.8973 144.484 57.4683C143.423 57.4557 142.378 57.732 141.462 58.2678C138.562 60.2237 136.094 62.752 134.208 65.6973C116.931 88.8633 110.437 115.52 114.025 139.31C114.398 142.652 115.211 145.931 116.443 149.06C116.936 150.051 117.668 150.904 118.574 151.541C119.48 152.178 120.53 152.578 121.63 152.706C123.58 153.135 133.038 154.169 135.28 153.623C136.626 152.822 137.928 151.95 139.18 151.01C145.03 151.127 161.313 150.269 163.653 150.152C163.087 161.072 163.165 189.035 163.282 192.057C154.098 191.862 130.737 191.862 128.182 191.784C128.182 186.519 128.611 180.767 128.377 175.424C128.065 174.936 127.48 174.917 126.973 174.878C122.586 174.624 104.08 174.039 99.8877 174.41C99.0492 174.41 100.063 174.156 99.8877 196.874H67.6152C67.5221 196.874 67.4328 196.911 67.367 196.977C67.3011 197.042 67.2642 197.132 67.2642 197.225C67.2642 211.908 66.9912 226.728 67.2642 241.529H39.1842C39.1169 241.529 39.0525 241.555 39.0049 241.603C38.9574 241.651 38.9307 241.715 38.9307 241.782C38.9307 241.85 38.9574 241.914 39.0049 241.962C39.0525 242.009 39.1169 242.036 39.1842 242.036C58.2162 242.27 77.3457 242.465 96.4557 242.387C96.8262 242.387 96.9432 243.732 96.8457 217.68C108.546 217.68 120.246 217.973 132.082 217.68C132.082 226.455 131.829 235.23 131.946 244.005C128.49 242.393 124.564 242.101 120.909 243.186C112.407 245.429 114.064 251.805 113.83 252.761C113.401 254.087 112.153 253.736 110.73 254.106C109.111 254.55 107.641 255.418 106.472 256.622C105.302 257.825 104.477 259.32 104.08 260.951C100.18 260.775 97.7232 260.951 95.8317 264.324C94.7962 263.144 93.5074 262.214 92.0616 261.602C90.6158 260.991 89.0505 260.714 87.4827 260.793C85.9149 260.872 84.3851 261.304 83.0079 262.057C81.6307 262.811 80.4416 263.866 79.5297 265.143C76.0977 264.012 73.0557 267.093 71.5737 270.194C69.0777 275.517 73.2312 278.462 73.5237 279.242L62.6037 279.105C62.3307 279.105 62.3307 279.515 62.6037 279.534C66.3282 279.534 101.448 280.88 185.454 279.671C176.172 299.99 174.963 334.271 174.417 356.501C175.508 356.98 176.636 357.371 177.79 357.671C177.79 359.172 177.907 360.732 177.907 362.702C176.172 363.696 170.731 366.933 170.439 367.304C170.146 367.674 169.912 369.059 170.79 369.254C175.05 369.368 179.314 369.25 183.562 368.903C183.31 365.324 183.774 361.731 184.927 358.334C187.351 358.374 189.774 358.25 192.181 357.963C204.564 330.273 206.221 316.038 210.453 306.522C214.645 303.383 225 292.248 229.855 287.802C230.614 280.429 230.718 273.003 230.167 265.611C230.167 265.28 230.577 264.987 230.889 265.611C231.513 266.918 232.234 271.656 231.552 284.487C231.279 289.791 229.426 300.516 234.048 314.732C238.171 325.898 244.611 336.066 252.943 344.567L269.07 360.83C270.16 360.632 271.235 360.359 272.287 360.011C272.385 360.128 275.349 363.911 275.505 363.911C275.484 364.997 275.146 366.054 274.533 366.951C273.92 367.849 273.058 368.547 272.053 368.961C271.468 369.195 271.761 370.911 272.209 370.911C274.288 371.028 276.371 371.028 278.449 370.911C280.085 369.064 281.597 367.11 282.973 365.061C282.973 364.749 279.073 359.621 278.371 356.949C279.147 356.425 279.883 355.845 280.575 355.214C273.356 338.611 266.991 321.65 261.504 304.397C265.072 298.176 271.449 286.125 272.346 279.378C315.012 281.328 351.106 283.805 392.739 279.632C393.051 279.632 393.051 279.125 392.739 279.144L387.805 279.573C386.687 276.587 384.924 273.884 382.642 271.656C380.361 269.428 377.616 267.73 374.604 266.684C369.787 265.104 368.91 266.937 367.467 264.968C365.585 262.087 362.803 259.909 359.555 258.774C356.307 257.638 352.774 257.608 349.507 258.689C350.209 251.025 344.691 243.849 336.091 244.824C337.042 241.809 336.905 238.555 335.704 235.63C334.504 232.704 332.315 230.293 329.52 228.815C330.231 226.56 330.315 224.154 329.762 221.856C329.209 219.557 328.04 217.453 326.38 215.769C325.497 214.597 324.277 213.72 322.884 213.257C321.491 212.794 319.99 212.766 318.58 213.176C316.554 209.481 314.064 206.06 311.17 202.997C311.815 202.163 312.407 201.29 312.945 200.384C310.533 195.114 307.41 190.2 303.663 185.778C303.663 185.778 304.248 169.632 304.287 168.228C313.257 168.033 336.208 168.755 338.704 168.716C338.704 179.012 338.802 205.454 338.899 208.379C338.903 208.439 338.922 208.497 338.953 208.549C338.985 208.6 339.028 208.643 339.08 208.674C339.132 208.705 339.191 208.722 339.251 208.725C339.311 208.728 339.371 208.716 339.426 208.691C355.611 208.184 368.812 209.159 372.478 209.217C372.478 212.61 371.874 227.801 372.478 229.283C372.478 229.458 379.498 230.901 393.519 230.199C395.04 230.043 401.611 229.868 400.305 228.756ZM183.075 362.526C181.534 362.35 179.981 362.311 178.434 362.409C178.434 362.214 178.258 358.509 178.2 357.768C180.209 358.076 182.233 358.277 184.264 358.373C184.03 358.997 183.114 362.448 183.075 362.526ZM277.806 357.378L279.892 361.278C279.268 361.629 277.24 362.936 275.992 363.677C275.992 363.482 272.892 359.777 272.814 359.777C274.529 359.089 276.197 358.288 277.806 357.378ZM255.868 163.158C256.524 163.139 257.177 163.061 257.818 162.924C258.932 162.841 260.016 162.519 260.995 161.981C261.974 161.443 262.825 160.7 263.493 159.804C268.134 153.116 258.52 156.684 260.665 143.97C261.738 138.785 263.669 133.816 266.379 129.267C267.883 131.184 269.765 132.77 271.909 133.928C274.053 135.085 276.412 135.789 278.839 135.995C280.438 135.995 278.976 139.739 279.639 142.956C280.126 145.238 282.642 143.561 284.104 144.906C284.554 145.34 284.87 145.894 285.015 146.502C285.16 147.11 285.128 147.747 284.923 148.337C284.718 148.928 284.348 149.447 283.858 149.834C283.367 150.221 282.776 150.46 282.154 150.522C281.152 152.867 280.292 155.27 279.58 157.718C277.193 159.34 275.534 161.831 274.959 164.66C275.118 165.586 275.491 166.462 276.05 167.217C276.609 167.972 277.337 168.586 278.176 169.008C275.355 172.096 271.51 174.056 267.354 174.527C265.092 174.915 262.768 174.686 260.626 173.864C256.609 172.089 255.147 167.448 255.868 163.158ZM199.123 160.623C199.279 161.618 204.837 180.006 206.007 183.867C206.845 184.55 210.531 181.508 212.5 180.942C213.48 188.501 216.607 195.62 221.509 201.456C211.759 209.529 204.642 210.563 203.452 210.602C202.274 210.655 201.101 210.426 200.029 209.934C198.957 209.442 198.018 208.702 197.29 207.774C194.417 204.301 192.639 200.052 192.181 195.567C190.426 184.394 190.972 172.694 191.148 161.286C191.424 161.387 191.725 161.402 192.01 161.329C192.296 161.256 192.552 161.098 192.747 160.877C193.761 162.593 195.048 162.281 195.75 161.13C197.232 163.275 199.299 160.194 199.786 157.718C199.786 157.718 201.424 157.854 202.224 157.874C201.463 159.375 199.065 160.253 199.123 160.623ZM193.585 154.442C193.585 154.169 194.17 153.837 194.404 153.818C194.647 153.826 194.879 153.92 195.058 154.085C195.237 154.25 195.351 154.473 195.379 154.715C195.379 155.027 195.847 155.183 195.984 154.89C196.094 154.675 196.254 154.488 196.45 154.346C196.647 154.203 196.874 154.109 197.113 154.071C197.353 154.033 197.598 154.052 197.828 154.127C198.059 154.201 198.269 154.329 198.441 154.5C200.722 156.45 197.68 162.008 196.491 161.111C196.257 160.935 195.867 160.818 196.023 159.453C196.023 159.122 195.516 159.18 195.399 159.453C195.399 160.994 194.794 161.403 194.326 161.403C193.858 161.403 193.546 160.994 193.332 160.682C193.216 160.201 193.216 159.7 193.332 159.219C193.332 158.829 192.786 158.654 192.708 159.063C192.61 159.56 192.439 160.04 192.201 160.487C192.129 160.577 192.034 160.646 191.926 160.687C191.818 160.727 191.701 160.738 191.587 160.718C191.474 160.698 191.367 160.648 191.28 160.573C191.192 160.498 191.126 160.401 191.089 160.292C190.684 158.407 190.751 156.451 191.284 154.598C191.348 154.398 191.469 154.222 191.632 154.09C191.794 153.958 191.992 153.877 192.201 153.857C192.493 153.857 192.903 154.344 192.903 154.403C192.961 154.91 193.605 154.91 193.585 154.442ZM204.798 157.074C203.394 157.074 201.697 157.074 199.864 157.211C200.274 153.642 197.193 152.628 195.808 154.013C195.684 153.78 195.504 153.582 195.283 153.438C195.062 153.294 194.809 153.208 194.546 153.189C194.283 153.169 194.019 153.217 193.78 153.327C193.54 153.437 193.332 153.606 193.176 153.818C193.058 153.679 192.914 153.565 192.751 153.482C192.589 153.4 192.411 153.351 192.229 153.338C192.048 153.326 191.865 153.349 191.693 153.408C191.52 153.467 191.362 153.56 191.226 153.681C190.465 154.305 190.407 155.631 190.29 156.879H183.855C183.465 155.748 181.398 150.581 181.027 149.274L208.6 147.578C208.035 149.06 205.597 155.456 204.798 157.074ZM256.18 142.995C255.459 145.745 253.996 150.308 250.33 150.191C249.876 150.108 249.466 149.866 249.173 149.509C248.88 149.152 248.724 148.703 248.731 148.241C249.087 148.295 249.448 148.295 249.804 148.241C251.384 147.084 252.593 145.494 253.286 143.662C253.978 141.831 254.123 139.838 253.704 137.925C253.704 137.555 253.333 136.385 253.08 136.346L251.13 136.034C253.333 133.245 257.76 136.131 256.18 142.995ZM197.212 74.9598C197.427 74.9598 215.289 75.1938 224.103 75.1548C223.479 89.4288 223.342 103.898 223.947 118.308C215.386 111.21 206.182 104.366 197.154 97.5603C197.173 97.3848 197.368 78.8598 197.212 74.9598ZM118.432 150.386C116.482 148.338 115.936 145.257 115.429 142.586C111.276 121.136 115.839 98.5548 126.427 79.5423C128.104 76.5003 135.865 63.5328 141.715 59.0673C144.094 57.2343 147.117 59.6328 148.462 62.1288C150.802 66.4773 151.153 85.6653 150.724 91.9248C147.25 90.634 143.461 90.4568 139.882 91.4178C121.533 96.6828 123.093 124.685 143.782 124.802C142.378 128.702 136.528 142.956 126.232 150.6C125.123 151.507 123.724 151.984 122.292 151.945C120.86 151.905 119.49 151.352 118.432 150.386ZM134.851 153.155C134.481 153.038 126.7 152.823 123.736 152.531C126.412 151.592 128.793 149.964 130.639 147.812C142.846 135.878 148.365 116.358 150.705 99.4713C152.239 87.9414 152.022 76.2458 150.061 64.7808C149.635 62.5236 148.565 60.4379 146.98 58.7748C148.365 59.2233 156.886 61.8558 157.374 61.8948C163.516 77.6313 163.926 95.5128 160.143 112.049C159.363 115.149 158.349 118.23 157.354 121.272C153.201 134.61 146.844 145.959 134.851 153.155ZM139.746 150.561C162.561 132.66 167.046 89.5653 159.811 66.8868C184.147 92.3538 216.361 109.319 240.58 134.649C240.736 134.805 250.915 136.716 252.963 137.048C253.491 138.955 253.447 140.975 252.837 142.857C252.227 144.74 251.077 146.402 249.531 147.636C248.673 147.285 237.285 145.257 237.129 145.238C230.694 145.296 142.69 150.405 139.746 150.561ZM96.4362 216.959C96.3789 216.959 96.3227 216.974 96.2728 217.002C96.223 217.03 96.1814 217.071 96.1519 217.12C96.1225 217.169 96.1062 217.225 96.1048 217.282C96.1033 217.339 96.1167 217.396 96.1437 217.446C96.1437 225.344 95.8707 233.651 96.1437 241.743C88.9677 241.568 69.9942 241.509 68.0052 241.509C68.2392 230.219 68.0052 200.715 68.0052 197.537H100.239C100.295 197.538 100.351 197.526 100.401 197.5C100.451 197.474 100.493 197.436 100.524 197.389C100.556 197.343 100.574 197.289 100.579 197.232C100.584 197.176 100.574 197.12 100.551 197.069C100.765 189.951 100.551 182.444 100.395 175.092C107.473 174.819 125.238 175.736 127.051 175.853C128.397 175.853 127.578 174.858 127.617 192.33C127.617 192.486 127.948 192.681 128.026 192.681C139.726 193.5 151.641 192.681 163.555 192.818C164.901 193.266 163.419 189.249 164.218 150.249L180.442 149.333C180.91 150.62 182.997 155.963 183.348 157.445C183.374 157.53 183.426 157.605 183.495 157.66C183.565 157.716 183.649 157.749 183.738 157.757H190.426C190.243 158.915 190.427 160.101 190.953 161.15C189.139 189.171 191.499 196.25 191.694 196.952C189.617 196.288 187.382 196.309 185.318 197.011C183.253 197.713 181.469 199.059 180.228 200.852C178.885 199.871 177.28 199.31 175.619 199.241C173.957 199.172 172.312 199.598 170.892 200.464C169.472 201.331 168.341 202.599 167.643 204.109C166.944 205.618 166.709 207.301 166.968 208.944C166.968 209.783 166.188 209.958 165.466 209.997C157.354 209.646 152.206 215.847 153.298 221.931C152.096 222.863 151.256 224.184 150.922 225.668C150.587 227.152 150.779 228.705 151.465 230.063C148.755 231.233 145.615 233.105 145.615 236.42C145.514 237.378 145.786 238.338 146.374 239.1C146.962 239.863 147.822 240.37 148.774 240.515C149.691 240.632 150.724 240.515 151.504 241.158C151.869 241.904 152.443 242.526 153.157 242.949C153.871 243.371 154.693 243.576 155.521 243.537C155.557 244.15 155.461 244.763 155.239 245.335C155.017 245.907 154.674 246.425 154.234 246.852C154.234 246.852 152.148 246.365 151.231 246.014C150.351 245.685 149.381 245.685 148.501 246.014C147.472 246.413 146.345 246.485 145.274 246.219C144.202 245.954 143.239 245.365 142.515 244.532C141.364 242.582 139.297 239.286 136.665 241.412C136.348 241.689 136.101 242.036 135.943 242.426C135.943 245.955 133.896 244.844 132.901 244.376C133.155 235.367 133.096 226.377 133.116 217.368C132.843 216.842 134.617 216.881 96.4362 216.959ZM185.98 278.715C183.192 278.715 108.702 279.593 74.1867 279.242C73.5627 277.292 70.7547 275.556 71.8077 271.734C72.8607 267.912 76.1172 264.539 79.7247 265.884C79.8053 265.912 79.8933 265.91 79.9723 265.877C80.0512 265.845 80.1157 265.785 80.1537 265.709C80.993 264.541 82.0804 263.573 83.3378 262.875C84.5952 262.177 85.9915 261.765 87.4266 261.67C88.8617 261.575 90.3001 261.799 91.6386 262.325C92.9771 262.851 94.1826 263.667 95.1687 264.714C95.5782 265.065 95.7147 265.592 96.2607 264.87C97.5672 261.731 101.272 261.282 104.509 261.614C104.589 261.609 104.665 261.581 104.727 261.532C104.79 261.483 104.836 261.417 104.86 261.341C105.233 259.332 106.346 257.537 107.98 256.31C109.697 255.232 111.638 254.565 113.655 254.36C113.951 254.066 114.18 253.712 114.328 253.322C114.476 252.931 114.539 252.514 114.513 252.098C114.443 250.405 114.94 248.738 115.926 247.36C116.912 245.983 118.329 244.973 119.953 244.493C127.344 242.192 133.603 245.955 134.598 245.799C135.592 245.643 136.002 244.844 136.099 243.849C136.099 243.264 136.002 241.724 138.049 241.509C140.097 241.295 140.74 243.869 141.657 245.058C142.353 245.896 143.27 246.522 144.304 246.867C145.337 247.211 146.447 247.26 147.507 247.008C148.852 246.794 149.281 246.306 150.744 246.872C151.814 247.21 152.92 247.426 154.039 247.515C154.685 247.004 155.189 246.336 155.503 245.575C155.817 244.814 155.931 243.985 155.833 243.167C155.832 243.122 155.82 243.079 155.8 243.04C155.779 243.001 155.75 242.966 155.714 242.94C155.679 242.914 155.637 242.896 155.594 242.888C155.55 242.88 155.505 242.882 155.463 242.894C154.951 243 154.421 242.973 153.922 242.816C153.424 242.659 152.974 242.377 152.616 241.997C152.011 241.334 151.758 240.495 150.822 240.183C149.886 239.871 148.872 240.066 148.033 239.793C147.503 239.515 147.043 239.119 146.69 238.635C146.338 238.151 146.101 237.592 146 237.002C145.898 236.411 145.933 235.806 146.103 235.231C146.273 234.657 146.573 234.129 146.98 233.69C148.308 232.178 150.009 231.042 151.914 230.394C151.98 230.357 152.029 230.296 152.051 230.223C152.073 230.15 152.066 230.072 152.031 230.004C151.267 228.738 151.012 227.229 151.316 225.782C151.62 224.335 152.46 223.057 153.669 222.204C153.721 222.173 153.763 222.126 153.787 222.07C153.811 222.014 153.818 221.952 153.805 221.892C152.557 216.159 157.705 210.855 163.555 210.543C166.285 210.699 168.06 210.29 167.455 207.189C167.55 205.863 167.965 204.579 168.665 203.448C169.365 202.318 170.328 201.373 171.472 200.696C174.28 198.921 177.829 200.072 180.481 201.359C181.674 199.58 183.413 198.237 185.435 197.534C187.458 196.83 189.655 196.804 191.694 197.459C191.811 197.459 193.897 209.861 202.068 211.284C203.16 211.479 209.38 211.616 221.158 202.938C220.086 206.292 215.191 224.213 214.314 229.361C214.08 230.823 215.269 231.564 216.264 232.227C211.428 239.696 194.092 261.341 185.98 278.715ZM327.375 218.07C328.424 219.664 329.094 221.478 329.33 223.371C329.567 225.265 329.365 227.187 328.74 228.99C328.711 229.074 328.712 229.165 328.745 229.247C328.777 229.329 328.837 229.397 328.915 229.439C338.782 234.743 335.311 245.039 335.311 245.039C333.761 245.411 332.319 246.139 331.099 247.164C330.904 247.359 331.099 247.652 331.411 247.476C332.796 246.393 334.435 245.682 336.172 245.409C337.908 245.136 339.686 245.311 341.337 245.916C343.917 246.96 346.065 248.852 347.426 251.28C348.787 253.708 349.28 256.528 348.825 259.274C360.993 256.31 366.375 264.519 366.784 265.124C368.032 266.918 368.481 266.684 370.684 266.762C377.977 267.093 384.334 273.099 387.357 279.671C349.254 282.537 310.936 280.256 272.755 278.579C275.794 268.169 277.433 257.402 277.63 246.56C278.369 246.433 279.099 246.257 279.814 246.033C280.317 245.116 280.684 244.131 280.906 243.108C282.856 233.105 286.054 222.926 286.756 212.493C289.271 214.81 292.008 216.874 294.927 218.655C295.161 218.772 295.902 218.168 296.136 218.012C298.184 219.238 300.139 220.613 301.986 222.126C305.379 225.675 303.936 229.283 304.833 242.835C305.71 257.265 307.017 260.756 306.607 261.926C306.003 263.466 300.25 264.636 304.833 265.826C305.359 265.826 307.017 265.358 306.783 266.43C306.178 267.425 304.833 269.355 307.017 269.862C307.334 269.897 307.653 269.813 307.914 269.628C307.941 269.957 308.087 270.264 308.324 270.493C308.56 270.723 308.872 270.859 309.201 270.876C309.557 270.891 309.908 270.794 310.206 270.598C310.503 270.402 310.732 270.117 310.858 269.784C310.931 269.986 311.056 270.164 311.221 270.301C311.385 270.438 311.583 270.529 311.794 270.564C313.998 270.408 313.881 267.308 314.446 265.416C314.973 261.75 315.07 257.616 317.118 253.989C322.207 240.339 325.6 226.689 319.068 213.936C320.698 213.667 322.371 213.923 323.846 214.666C325.321 215.409 326.523 216.601 327.277 218.07H327.375ZM315.343 256.037C314.329 258.26 313.393 267.152 313.159 267.737C312.925 268.322 312.594 270.486 311.443 269.414C311.287 269.072 311.233 268.693 311.287 268.322C311.287 267.951 310.78 267.971 310.722 268.322C310.722 269.024 310.312 270.018 309.454 270.096C308.011 270.096 308.577 268.283 308.538 268.146C308.521 268.079 308.481 268.02 308.427 267.977C308.372 267.935 308.305 267.912 308.235 267.912C308.166 267.912 308.099 267.935 308.044 267.977C307.989 268.02 307.95 268.079 307.933 268.146C307.933 268.283 307.797 269.628 306.744 269.043C306.295 268.77 306.354 268.322 306.568 267.932C306.783 267.542 307.368 266.976 307.465 266.352C307.501 266.089 307.449 265.82 307.319 265.588C307.189 265.356 306.987 265.173 306.744 265.065C306.1 264.933 305.437 264.933 304.794 265.065C304.501 265.065 303.916 265.065 303.819 264.675C303.721 264.285 304.813 264.09 305.106 263.993C308.46 262.803 307.251 260.093 306.802 256.446C305.886 249.134 305.515 241.568 305.223 233.982V227.352C304.813 222.107 301.498 219.962 296.896 217.602C296.896 217.602 306.49 210.68 311.034 203.543C321.427 216.12 326.926 227.937 315.246 256.037H315.343ZM304.774 188.274C307.756 191.957 310.32 195.96 312.418 200.208C309.376 206.058 300.309 214.131 295.239 217.758C293.094 216.666 286.561 212.981 280.828 202.548C280.711 202.334 280.38 202.548 280.497 202.743C282.151 205.928 284.11 208.945 286.347 211.752C285.664 220.761 282.915 229.848 281.14 238.877C280.738 241.053 280.177 243.197 279.463 245.292C273.613 246.716 232.254 241.217 216.303 231.116C215.269 230.492 215.035 230.199 215.269 228.912C217.219 218.382 223.615 194.826 230.869 180.416C230.986 180.162 230.616 179.948 230.499 180.201C227.167 186.814 224.313 193.656 221.958 200.676C218.214 195.587 213.904 187.709 213.319 179.577C213.046 178.29 214.197 177.627 215.074 177.062C215.952 176.496 233.911 161.774 250.428 162.749C251.773 162.749 255.225 163.1 255.634 163.1C255.143 165.033 255.229 167.067 255.88 168.952C256.532 170.837 257.721 172.49 259.3 173.708C263.551 176.633 272.95 175.989 278.8 169.223C288.792 173.472 297.652 179.995 304.677 188.274H304.774Z" fill="black"/>
<path d="M266.944 146.72C266.988 146.709 267.029 146.687 267.062 146.655C267.094 146.624 267.118 146.584 267.13 146.54C267.142 146.496 267.142 146.45 267.13 146.406C267.118 146.362 267.094 146.323 267.061 146.291C266.691 145.96 265.755 145.979 265.755 145.296C267.083 143.554 268.515 141.893 270.045 140.324C270.22 140.129 269.947 139.817 269.752 140.012C265.618 144.165 264.799 144.77 265.228 145.862C265.394 146.161 265.647 146.404 265.953 146.557C266.26 146.71 266.605 146.767 266.944 146.72ZM265.813 139.583C266.218 139.132 266.596 138.656 266.944 138.16C267.139 137.887 266.671 137.535 266.437 137.886C266.083 138.353 265.77 138.848 265.501 139.368C265.506 139.404 265.518 139.438 265.536 139.469C265.555 139.499 265.58 139.525 265.609 139.546C265.639 139.566 265.672 139.58 265.707 139.586C265.742 139.593 265.778 139.592 265.813 139.583ZM273.282 143.659C273.555 143.659 275.719 142.157 275.232 141.709C275.17 141.647 275.085 141.612 274.998 141.612C274.91 141.612 274.826 141.647 274.764 141.709C274.491 142.177 273.048 142.976 273.067 143.659C273.1 143.677 273.137 143.687 273.174 143.687C273.212 143.687 273.249 143.677 273.282 143.659ZM269.947 153.096C270.688 153.643 272.034 152.785 272.658 151.732C273.011 151.039 273.299 150.314 273.516 149.567C273.527 149.534 273.531 149.5 273.528 149.465C273.526 149.431 273.516 149.398 273.5 149.367C273.484 149.337 273.462 149.31 273.435 149.288C273.408 149.267 273.377 149.251 273.344 149.241C273.311 149.232 273.276 149.23 273.242 149.234C273.208 149.239 273.175 149.25 273.145 149.268C273.116 149.286 273.09 149.309 273.07 149.337C273.05 149.365 273.036 149.397 273.028 149.43C272.796 149.946 272.429 150.388 271.966 150.711C271.502 151.034 270.959 151.225 270.396 151.263C269.343 151.595 269.226 152.609 269.947 153.096ZM173.676 89.7215C173.634 89.6956 173.584 89.6873 173.537 89.6982C173.489 89.7092 173.448 89.7386 173.422 89.78C173.396 89.8214 173.388 89.8713 173.399 89.9189C173.41 89.9664 173.439 90.0076 173.481 90.0335C184.635 98.3405 187.131 99.452 193.605 104.795C193.819 104.97 194.131 104.678 193.917 104.463C187.526 99.0782 180.762 94.1519 173.676 89.7215ZM208.834 116.085C209.107 116.202 209.4 115.89 209.166 115.656C208.932 115.422 203.316 111.639 202.146 110.859C201.873 110.664 201.619 111.093 201.892 111.288C203.023 112.107 208.191 115.793 208.834 116.085ZM88.2267 49.337L84.3267 50.3705C90.6252 59.4575 101.506 68.2715 109.345 77.339C110.691 77.5925 98.2302 56.942 93.4137 47.114L96.6702 46.8995C96.7521 46.9007 96.8324 46.8773 96.9008 46.8324C96.9693 46.7875 97.0227 46.7231 97.0542 46.6475C97.0857 46.572 97.0938 46.4887 97.0775 46.4085C97.0612 46.3283 97.0212 46.2548 96.9627 46.1975C89.803 36.7364 81.4754 28.2188 72.1782 20.8475C71.9442 20.36 71.2227 20.8475 71.4567 21.257C76.2732 31.0265 83.4492 39.86 88.2267 49.337ZM95.8902 46.1195L92.7702 46.295C92.695 46.2952 92.6211 46.3151 92.5561 46.3529C92.491 46.3906 92.437 46.4448 92.3995 46.5099C92.3619 46.5751 92.3422 46.649 92.3422 46.7243C92.3423 46.7995 92.3621 46.8734 92.3997 46.9385C96.2997 55.0505 106.479 72.7565 107.122 73.79C101.526 67.94 87.4077 52.6325 85.6722 50.8385L88.8897 50C88.9493 49.9813 89.004 49.9498 89.0501 49.9078C89.0963 49.8658 89.1327 49.8142 89.1568 49.7566C89.181 49.699 89.1922 49.6369 89.1899 49.5745C89.1875 49.5122 89.1716 49.4511 89.1432 49.3955C85.2432 41.5955 73.6797 23.7725 72.8217 22.0955C81.9477 28.589 94.3302 44.2085 95.8902 46.1195ZM91.6587 99.1985C91.7538 99.2172 91.8523 99.206 91.9407 99.1663C92.0291 99.1266 92.103 99.0605 92.1522 98.977C92.2015 98.8936 92.2236 98.7969 92.2155 98.7004C92.2074 98.6038 92.1696 98.5121 92.1072 98.438C89.4863 95.0209 86.4316 91.9597 83.0202 89.3315C89.3772 88.3955 95.8512 88.4345 102.208 87.3815C102.637 87.3815 102.559 86.699 102.208 86.582L62.6817 73.751C62.586 73.7096 62.4778 73.708 62.3809 73.7463C62.284 73.7847 62.2063 73.8601 62.165 73.9557C62.1236 74.0514 62.1219 74.1596 62.1603 74.2565C62.1987 74.3534 62.274 74.4311 62.3697 74.4725C66.1979 76.7961 69.6172 79.7344 72.4902 83.1695C58.8792 81.8825 30.7602 80.81 30.5262 80.81C29.9802 80.615 29.7462 81.473 30.2922 81.668C45.8142 87.323 87.1932 98.0285 91.6587 99.1985ZM32.3787 81.4145C46.0287 81.8435 58.2747 83.2475 73.3287 83.9885C73.6992 83.9885 73.7772 83.579 73.5822 83.345C71.172 80.3067 68.3346 77.6335 65.1582 75.4085L100.258 86.816C94.0962 87.6545 87.8367 87.635 81.6942 88.649C81.3042 88.649 81.2847 89.273 81.5772 89.4485C84.9646 91.7977 87.9535 94.6747 90.4302 97.97C71.1057 92.9 51.4302 88.22 32.3787 81.4145ZM100.629 123.008C92.4972 127.044 71.1057 136.151 68.7072 137.067C68.6101 137.098 68.5269 137.161 68.4724 137.247C68.4179 137.333 68.3957 137.436 68.4098 137.536C68.4238 137.637 68.4732 137.73 68.5491 137.797C68.625 137.865 68.7225 137.904 68.8242 137.906H78.2622C69.7992 145.706 63.7737 151.556 53.7702 157.406C53.4972 157.562 54.5697 158.088 54.8622 157.952C69.1599 151.049 82.995 143.226 96.2802 134.533C96.9042 132.875 90.4302 134.142 89.2992 133.791L100.999 123.671C101.506 123.339 101.019 122.813 100.629 123.008ZM87.9732 133.909C87.9147 133.966 87.8748 134.039 87.8585 134.119C87.8422 134.2 87.8503 134.283 87.8818 134.359C87.9132 134.434 87.9667 134.498 88.0351 134.543C88.1035 134.588 88.1839 134.612 88.2657 134.61H94.7592C82.9713 142.275 70.7288 149.217 58.0992 155.397C65.9251 150.426 73.1265 144.534 79.5492 137.847C79.6005 137.791 79.6347 137.721 79.6482 137.645C79.6616 137.57 79.6537 137.492 79.6253 137.421C79.5968 137.35 79.5491 137.288 79.4874 137.243C79.4257 137.198 79.3525 137.171 79.2762 137.165H71.0082C78.8082 134.104 96.7482 125.913 98.1132 125.25L87.9732 133.909Z" fill="black"/>
</g>
<defs>
<clipPath id="clip0_1042_526">
<rect width="390" height="390" fill="white" transform="translate(0.720703 0.821289)"/>
</clipPath>
</defs>
</svg>
