<svg width="33" height="33" viewBox="0 0 33 33" fill="none" xmlns="http://www.w3.org/2000/svg">
<path d="M30.8162 16.5C30.8162 24.228 24.5512 30.5 16.8162 30.5C9.08116 30.5 2.81616 24.228 2.81616 16.5C2.81616 8.765 9.08116 2.5 16.8162 2.5C24.5512 2.5 30.8162 8.765 30.8162 16.5Z" fill="#333333"/>
<path d="M23.3783 12.9574C23.3019 13.002 21.4832 13.9425 21.4832 16.0279C21.569 18.4061 23.7783 19.2401 23.8162 19.2401C23.7783 19.2847 23.4826 20.3763 22.6068 21.5205C21.9118 22.5062 21.1404 23.5 19.9689 23.5C18.8547 23.5 18.4547 22.8431 17.1689 22.8431C15.7882 22.8431 15.3975 23.5 14.3404 23.5C13.1689 23.5 12.3404 22.453 11.6074 21.4766C10.6553 20.1986 9.84594 18.1931 9.81737 16.2675C9.79811 15.2471 10.0081 14.244 10.541 13.3921C11.2931 12.2026 12.636 11.3952 14.1025 11.3686C15.2261 11.3333 16.2261 12.0875 16.9118 12.0875C17.5689 12.0875 18.7975 11.3686 20.1876 11.3686C20.7876 11.3692 22.3876 11.5376 23.3783 12.9574ZM16.8168 11.1649C16.6168 10.233 17.1689 9.30119 17.6832 8.70677C18.3404 7.98792 19.3783 7.5 20.2733 7.5C20.3304 8.43185 19.9683 9.34575 19.3211 10.0114C18.7404 10.7302 17.7404 11.2714 16.8168 11.1649Z" fill="white"/>
</svg>
