<svg width="32" height="33" viewBox="0 0 32 33" fill="none" xmlns="http://www.w3.org/2000/svg">
<path id="Vector" d="M10.6769 25.0729H4.80139C2.62388 25.0729 1.53513 25.0729 1.30605 24.9039C1.0487 24.7139 0.985818 24.6018 0.957942 24.2832C0.933146 23.9996 1.60044 22.9076 2.93505 20.7239C4.31301 18.4691 5.48306 15.1861 5.48306 10.5381C5.48306 7.96814 6.57688 5.50347 8.52388 3.68625C10.4709 1.86905 13.1116 0.848145 15.8651 0.848145C18.6186 0.848145 21.2593 1.86905 23.2062 3.68625C25.1534 5.50347 26.2471 7.96814 26.2471 10.5381C26.2471 15.1861 27.4172 18.4691 28.7952 20.7239C30.1297 22.9076 30.7971 23.9996 30.7723 24.2832C30.7445 24.6018 30.6815 24.7139 30.4242 24.9039C30.1951 25.0729 29.1064 25.0729 26.9289 25.0729H21.0561M10.6769 25.0729L10.6741 26.8033C10.6741 29.6703 12.9983 31.9943 15.8651 31.9943C18.7321 31.9943 21.0561 29.6703 21.0561 26.8033V25.0729M10.6769 25.0729H21.0561" stroke="white" stroke-width="1.38427" stroke-linecap="round" stroke-linejoin="round"/>
</svg>
