<svg width="69" height="51" viewBox="0 0 69 51" fill="none" xmlns="http://www.w3.org/2000/svg">
<g opacity="0.6">
<circle cx="3.6826" cy="3.69566" r="2.95652" fill="black"/>
<circle cx="19.2046" cy="3.69566" r="2.95652" fill="black"/>
<circle cx="34.7261" cy="3.69566" r="2.95652" fill="black"/>
<circle cx="50.248" cy="3.69566" r="2.95652" fill="black"/>
<circle cx="65.7695" cy="3.69566" r="2.95652" fill="black"/>
<circle cx="3.6826" cy="18.4783" r="2.95652" fill="black"/>
<circle cx="19.2046" cy="18.4783" r="2.95652" fill="black"/>
<circle cx="34.7261" cy="18.4783" r="2.95652" fill="black"/>
<circle cx="50.248" cy="18.4783" r="2.95652" fill="black"/>
<circle cx="65.7695" cy="18.4783" r="2.95652" fill="black"/>
<circle cx="3.6826" cy="33.2608" r="2.95652" fill="black"/>
<circle cx="19.2046" cy="33.2608" r="2.95652" fill="black"/>
<circle cx="34.7261" cy="33.2608" r="2.95652" fill="black"/>
<circle cx="50.248" cy="33.2608" r="2.95652" fill="black"/>
<circle cx="65.7695" cy="33.2608" r="2.95652" fill="black"/>
<circle cx="3.6826" cy="48.0434" r="2.95652" fill="black"/>
<circle cx="19.2046" cy="48.0434" r="2.95652" fill="black"/>
<circle cx="34.7261" cy="48.0434" r="2.95652" fill="black"/>
<circle cx="50.248" cy="48.0434" r="2.95652" fill="black"/>
<circle cx="65.7695" cy="48.0434" r="2.95652" fill="black"/>
</g>
</svg>
