<svg width="143" height="110" viewBox="0 0 143 110" fill="none" xmlns="http://www.w3.org/2000/svg">
<g opacity="0.5">
<g opacity="0.6">
<circle cx="2.67527" cy="3.26682" r="2.95652" fill="#D9D9D9"/>
<circle cx="18.1968" cy="3.26682" r="2.95652" fill="#D9D9D9"/>
<circle cx="33.7192" cy="3.26682" r="2.95652" fill="#D9D9D9"/>
<circle cx="49.2407" cy="3.26682" r="2.95652" fill="#D9D9D9"/>
<circle cx="64.7622" cy="3.26682" r="2.95652" fill="#D9D9D9"/>
<circle cx="2.67527" cy="18.0495" r="2.95652" fill="#D9D9D9"/>
<circle cx="18.1968" cy="18.0493" r="2.95652" fill="#D9D9D9"/>
<circle cx="33.7192" cy="18.0493" r="2.95652" fill="#D9D9D9"/>
<circle cx="49.2407" cy="18.0495" r="2.95652" fill="#D9D9D9"/>
<circle cx="64.7622" cy="18.0495" r="2.95652" fill="#D9D9D9"/>
<circle cx="2.67527" cy="32.832" r="2.95652" fill="#D9D9D9"/>
<circle cx="18.1968" cy="32.832" r="2.95652" fill="#D9D9D9"/>
<circle cx="33.7192" cy="32.832" r="2.95652" fill="#D9D9D9"/>
<circle cx="49.2407" cy="32.832" r="2.95652" fill="#D9D9D9"/>
<circle cx="64.7622" cy="32.832" r="2.95652" fill="#D9D9D9"/>
<circle cx="2.67527" cy="47.6147" r="2.95652" fill="#D9D9D9"/>
<circle cx="18.1968" cy="47.6147" r="2.95652" fill="#D9D9D9"/>
<circle cx="33.7192" cy="47.6147" r="2.95652" fill="#D9D9D9"/>
<circle cx="49.2407" cy="47.6147" r="2.95652" fill="#D9D9D9"/>
<circle cx="64.7622" cy="47.6147" r="2.95652" fill="#D9D9D9"/>
</g>
<g opacity="0.6">
<circle cx="77.6753" cy="3.26682" r="2.95652" fill="#D9D9D9"/>
<circle cx="93.1968" cy="3.26682" r="2.95652" fill="#D9D9D9"/>
<circle cx="108.719" cy="3.26682" r="2.95652" fill="#D9D9D9"/>
<circle cx="124.241" cy="3.26682" r="2.95652" fill="#D9D9D9"/>
<circle cx="139.762" cy="3.26682" r="2.95652" fill="#D9D9D9"/>
<circle cx="77.6753" cy="18.0495" r="2.95652" fill="#D9D9D9"/>
<circle cx="93.1968" cy="18.0493" r="2.95652" fill="#D9D9D9"/>
<circle cx="108.719" cy="18.0493" r="2.95652" fill="#D9D9D9"/>
<circle cx="124.241" cy="18.0495" r="2.95652" fill="#D9D9D9"/>
<circle cx="139.762" cy="18.0495" r="2.95652" fill="#D9D9D9"/>
<circle cx="77.6753" cy="32.832" r="2.95652" fill="#D9D9D9"/>
<circle cx="93.1968" cy="32.832" r="2.95652" fill="#D9D9D9"/>
<circle cx="108.719" cy="32.832" r="2.95652" fill="#D9D9D9"/>
<circle cx="124.241" cy="32.832" r="2.95652" fill="#D9D9D9"/>
<circle cx="139.762" cy="32.832" r="2.95652" fill="#D9D9D9"/>
<circle cx="77.6753" cy="47.6147" r="2.95652" fill="#D9D9D9"/>
<circle cx="93.1968" cy="47.6147" r="2.95652" fill="#D9D9D9"/>
<circle cx="108.719" cy="47.6147" r="2.95652" fill="#D9D9D9"/>
<circle cx="124.241" cy="47.6147" r="2.95652" fill="#D9D9D9"/>
<circle cx="139.762" cy="47.6147" r="2.95652" fill="#D9D9D9"/>
</g>
<g opacity="0.6">
<circle cx="2.67527" cy="62.2668" r="2.95652" fill="#D9D9D9"/>
<circle cx="18.1968" cy="62.2668" r="2.95652" fill="#D9D9D9"/>
<circle cx="33.7192" cy="62.2668" r="2.95652" fill="#D9D9D9"/>
<circle cx="49.2407" cy="62.2668" r="2.95652" fill="#D9D9D9"/>
<circle cx="64.7622" cy="62.2668" r="2.95652" fill="#D9D9D9"/>
<circle cx="2.67527" cy="77.0495" r="2.95652" fill="#D9D9D9"/>
<circle cx="18.1968" cy="77.0493" r="2.95652" fill="#D9D9D9"/>
<circle cx="33.7192" cy="77.0493" r="2.95652" fill="#D9D9D9"/>
<circle cx="49.2407" cy="77.0495" r="2.95652" fill="#D9D9D9"/>
<circle cx="64.7622" cy="77.0495" r="2.95652" fill="#D9D9D9"/>
<circle cx="2.67527" cy="91.832" r="2.95652" fill="#D9D9D9"/>
<circle cx="18.1968" cy="91.832" r="2.95652" fill="#D9D9D9"/>
<circle cx="33.7192" cy="91.832" r="2.95652" fill="#D9D9D9"/>
<circle cx="49.2407" cy="91.832" r="2.95652" fill="#D9D9D9"/>
<circle cx="64.7622" cy="91.832" r="2.95652" fill="#D9D9D9"/>
<circle cx="2.67527" cy="106.615" r="2.95652" fill="#D9D9D9"/>
<circle cx="18.1968" cy="106.615" r="2.95652" fill="#D9D9D9"/>
<circle cx="33.7192" cy="106.615" r="2.95652" fill="#D9D9D9"/>
<circle cx="49.2407" cy="106.615" r="2.95652" fill="#D9D9D9"/>
<circle cx="64.7622" cy="106.615" r="2.95652" fill="#D9D9D9"/>
</g>
<g opacity="0.6">
<circle cx="77.6753" cy="62.2668" r="2.95652" fill="#D9D9D9"/>
<circle cx="93.1968" cy="62.2668" r="2.95652" fill="#D9D9D9"/>
<circle cx="108.719" cy="62.2668" r="2.95652" fill="#D9D9D9"/>
<circle cx="124.241" cy="62.2668" r="2.95652" fill="#D9D9D9"/>
<circle cx="139.762" cy="62.2668" r="2.95652" fill="#D9D9D9"/>
<circle cx="77.6753" cy="77.0495" r="2.95652" fill="#D9D9D9"/>
<circle cx="93.1968" cy="77.0493" r="2.95652" fill="#D9D9D9"/>
<circle cx="108.719" cy="77.0493" r="2.95652" fill="#D9D9D9"/>
<circle cx="124.241" cy="77.0495" r="2.95652" fill="#D9D9D9"/>
<circle cx="139.762" cy="77.0495" r="2.95652" fill="#D9D9D9"/>
<circle cx="77.6753" cy="91.832" r="2.95652" fill="#D9D9D9"/>
<circle cx="93.1968" cy="91.832" r="2.95652" fill="#D9D9D9"/>
<circle cx="108.719" cy="91.832" r="2.95652" fill="#D9D9D9"/>
<circle cx="124.241" cy="91.832" r="2.95652" fill="#D9D9D9"/>
<circle cx="139.762" cy="91.832" r="2.95652" fill="#D9D9D9"/>
<circle cx="77.6753" cy="106.615" r="2.95652" fill="#D9D9D9"/>
<circle cx="93.1968" cy="106.615" r="2.95652" fill="#D9D9D9"/>
<circle cx="108.719" cy="106.615" r="2.95652" fill="#D9D9D9"/>
<circle cx="124.241" cy="106.615" r="2.95652" fill="#D9D9D9"/>
<circle cx="139.762" cy="106.615" r="2.95652" fill="#D9D9D9"/>
</g>
</g>
</svg>
