<svg width="49" height="41" viewBox="0 0 49 41" fill="none" xmlns="http://www.w3.org/2000/svg">
<path d="M24.5879 3.84583C13.5279 3.84583 4.58789 11.2958 4.58789 20.5125C4.58789 29.7292 13.5279 37.1792 24.5879 37.1792C35.6479 37.1792 44.5879 29.7292 44.5879 20.5125C44.5879 11.2958 35.6479 3.84583 24.5879 3.84583ZM24.5879 33.8458C15.7679 33.8458 8.58789 27.8625 8.58789 20.5125C8.58789 13.1625 15.7679 7.17916 24.5879 7.17916C33.4079 7.17916 40.5879 13.1625 40.5879 20.5125C40.5879 27.8625 33.4079 33.8458 24.5879 33.8458ZM31.7679 12.1792L24.5879 18.1625L17.4079 12.1792L14.5879 14.5292L21.7679 20.5125L14.5879 26.4958L17.4079 28.8458L24.5879 22.8625L31.7679 28.8458L34.5879 26.4958L27.4079 20.5125L34.5879 14.5292L31.7679 12.1792Z" fill="white"/>
</svg>
