<svg width="26" height="27" viewBox="0 0 26 27" fill="none" xmlns="http://www.w3.org/2000/svg">
<path d="M24.4661 21.1809V24.2497C24.4661 24.6129 24.3368 24.9216 24.078 25.1758C23.8193 25.4301 23.5052 25.5572 23.1356 25.5572H2.7341C2.3645 25.5572 2.05035 25.4301 1.79164 25.1758C1.53292 24.9216 1.40356 24.6129 1.40356 24.2497V21.1809C1.40356 20.8177 1.53292 20.509 1.79164 20.2548C2.05035 20.0005 2.3645 19.8734 2.7341 19.8734H7.66223C8.25865 19.8734 8.76607 20.2741 9.1682 20.7181C9.30319 20.8671 9.45689 21.0032 9.6293 21.1265C10.0867 21.4533 10.5972 21.6168 11.1608 21.6168H14.7089C15.2725 21.6168 15.783 21.4533 16.2404 21.1265C16.4128 21.0032 16.5665 20.8671 16.7015 20.7181C17.1036 20.2741 17.611 19.8734 18.2074 19.8734H23.1356C23.5052 19.8734 23.8193 20.0005 24.078 20.2548C24.3368 20.509 24.4661 20.8177 24.4661 21.1809ZM19.7811 8.35356C19.624 8.71676 19.3514 8.89836 18.9633 8.89836H15.4153V15.0001C15.4153 15.2362 15.3275 15.4405 15.1519 15.613C14.9764 15.7856 14.7685 15.8718 14.5282 15.8718H10.9802C10.7399 15.8718 10.532 15.7856 10.3565 15.613C10.1809 15.4405 10.0931 15.2362 10.0931 15.0001V8.89836H6.54505C6.15698 8.89836 5.8844 8.71676 5.72732 8.35356C5.57025 7.99944 5.63493 7.68618 5.92136 7.41378L12.1305 1.312C12.2968 1.13948 12.5047 1.05322 12.7542 1.05322C13.0037 1.05322 13.2116 1.13948 13.3779 1.312L19.587 7.41378C19.8735 7.68618 19.9381 7.99944 19.7811 8.35356Z" stroke="black" stroke-width="2" stroke-linejoin="round"/>
</svg>
