<svg width="81" height="81" viewBox="0 0 81 81" fill="none" xmlns="http://www.w3.org/2000/svg">
<mask id="path-1-outside-1_91_140" maskUnits="userSpaceOnUse" x="-8.68018" y="-8.26546" width="97.1712" height="97.1712" fill="black">
<rect fill="white" x="-8.68018" y="-8.26546" width="97.1712" height="97.1712"/>
<path d="M10.5235 58.7527C15.2332 66.5722 22.8116 72.2423 31.6424 74.5539C40.4733 76.8654 49.8578 75.6354 57.7946 71.1261C65.7315 66.6169 71.5926 59.1852 74.128 50.4161C76.6635 41.6469 75.6727 32.2341 71.3668 24.1851C67.061 16.1361 59.7809 10.0878 51.0791 7.33002C42.3773 4.57226 32.9424 5.32327 24.7864 9.42291C16.6304 13.5225 10.3988 20.6464 7.42053 29.2752C4.44224 37.904 4.95295 47.355 8.84373 55.6127L10.9342 54.6277C7.30035 46.9152 6.82337 38.0883 9.60501 30.0292C12.3867 21.9701 18.2068 15.3166 25.8242 11.4877C33.4417 7.65873 42.2537 6.9573 50.3809 9.53298C58.5082 12.1087 65.3076 17.7576 69.3291 25.2752C73.3507 32.7928 74.2761 41.584 71.908 49.7742C69.54 57.9644 64.0659 64.9053 56.653 69.1168C49.2402 73.3283 40.4754 74.4771 32.2276 72.3182C23.9798 70.1593 16.9018 64.8636 12.5031 57.5603L10.5235 58.7527Z"/>
</mask>
<path d="M10.5235 58.7527C15.2332 66.5722 22.8116 72.2423 31.6424 74.5539C40.4733 76.8654 49.8578 75.6354 57.7946 71.1261C65.7315 66.6169 71.5926 59.1852 74.128 50.4161C76.6635 41.6469 75.6727 32.2341 71.3668 24.1851C67.061 16.1361 59.7809 10.0878 51.0791 7.33002C42.3773 4.57226 32.9424 5.32327 24.7864 9.42291C16.6304 13.5225 10.3988 20.6464 7.42053 29.2752C4.44224 37.904 4.95295 47.355 8.84373 55.6127L10.9342 54.6277C7.30035 46.9152 6.82337 38.0883 9.60501 30.0292C12.3867 21.9701 18.2068 15.3166 25.8242 11.4877C33.4417 7.65873 42.2537 6.9573 50.3809 9.53298C58.5082 12.1087 65.3076 17.7576 69.3291 25.2752C73.3507 32.7928 74.2761 41.584 71.908 49.7742C69.54 57.9644 64.0659 64.9053 56.653 69.1168C49.2402 73.3283 40.4754 74.4771 32.2276 72.3182C23.9798 70.1593 16.9018 64.8636 12.5031 57.5603L10.5235 58.7527Z" stroke="white" stroke-width="10" mask="url(#path-1-outside-1_91_140)"/>
</svg>
