<svg width="71" height="71" viewBox="0 0 71 71" fill="none" xmlns="http://www.w3.org/2000/svg">
<mask id="path-1-inside-1_45_2601" fill="white">
<path d="M5.79985 53.2512C10.5096 61.0707 18.0879 66.7409 26.9188 69.0524C35.7496 71.3639 45.1341 70.1339 53.071 65.6246C61.0078 61.1154 66.8689 53.6838 69.4044 44.9146C71.9399 36.1454 70.949 26.7327 66.6432 18.6837C62.3374 10.6346 55.0573 4.58633 46.3555 1.82856C37.6536 -0.92921 28.2187 -0.178196 20.0627 3.92144C11.9068 8.02108 5.67519 15.1449 2.6969 23.7737C-0.28139 32.4026 0.229311 41.8536 4.1201 50.1112L6.21061 49.1262C2.57672 41.4138 2.09974 32.5868 4.88137 24.5277C7.66302 16.4686 13.4832 9.81517 21.1006 5.98621C28.7181 2.15726 37.53 1.45583 45.6573 4.03152C53.7846 6.6072 60.584 12.2562 64.6055 19.7737C68.627 27.2913 69.5525 36.0826 67.1844 44.2727C64.8163 52.4629 59.3422 59.4038 51.9294 63.6153C44.5166 67.8269 35.7517 68.9757 27.504 66.8168C19.2562 64.6579 12.1782 59.3621 7.77945 52.0589L5.79985 53.2512Z"/>
</mask>
<path d="M5.79985 53.2512C10.5096 61.0707 18.0879 66.7409 26.9188 69.0524C35.7496 71.3639 45.1341 70.1339 53.071 65.6246C61.0078 61.1154 66.8689 53.6838 69.4044 44.9146C71.9399 36.1454 70.949 26.7327 66.6432 18.6837C62.3374 10.6346 55.0573 4.58633 46.3555 1.82856C37.6536 -0.92921 28.2187 -0.178196 20.0627 3.92144C11.9068 8.02108 5.67519 15.1449 2.6969 23.7737C-0.28139 32.4026 0.229311 41.8536 4.1201 50.1112L6.21061 49.1262C2.57672 41.4138 2.09974 32.5868 4.88137 24.5277C7.66302 16.4686 13.4832 9.81517 21.1006 5.98621C28.7181 2.15726 37.53 1.45583 45.6573 4.03152C53.7846 6.6072 60.584 12.2562 64.6055 19.7737C68.627 27.2913 69.5525 36.0826 67.1844 44.2727C64.8163 52.4629 59.3422 59.4038 51.9294 63.6153C44.5166 67.8269 35.7517 68.9757 27.504 66.8168C19.2562 64.6579 12.1782 59.3621 7.77945 52.0589L5.79985 53.2512Z" stroke="white" stroke-width="4" mask="url(#path-1-inside-1_45_2601)"/>
</svg>
