<svg width="564" height="454" viewBox="0 0 564 454" fill="none" xmlns="http://www.w3.org/2000/svg">
<path fill-rule="evenodd" clip-rule="evenodd" d="M155.729 68.4693V70.5734C155.729 71.1629 155.963 71.7282 156.38 72.1451C156.796 72.5619 157.362 72.7961 157.951 72.7961C158.541 72.7961 159.106 72.5619 159.523 72.1451C159.94 71.7282 160.174 71.1629 160.174 70.5734V68.3508C160.144 67.7663 159.89 67.2159 159.465 66.8133C159.04 66.4106 158.477 66.1866 157.892 66.1874C157.599 66.1911 157.31 66.2535 157.041 66.371C156.772 66.4885 156.53 66.6587 156.328 66.8714C156.127 67.0841 155.97 67.3352 155.867 67.6096C155.764 67.8841 155.717 68.1764 155.729 68.4693ZM154.869 62.2755C158.129 61.505 160.796 59.3119 156.055 59.6083C154.88 59.7721 153.721 60.0298 152.587 60.3788C148.142 62.2162 151.995 62.9571 154.869 62.2755ZM426.775 82.9018C425.409 85.7671 423.125 88.0933 420.284 89.5105C420.174 89.5497 420.081 89.6261 420.021 89.7264C419.961 89.8268 419.938 89.9449 419.955 90.0605C419.973 90.1762 420.03 90.2821 420.117 90.3602C420.204 90.4383 420.316 90.4836 420.433 90.4884C421.392 90.6573 422.378 90.5873 423.303 90.2844C424.229 89.9816 425.066 89.4553 425.74 88.7521C426.414 88.049 426.904 87.1906 427.167 86.2529C427.43 85.3152 427.458 84.3271 427.249 83.3759C427.249 83.2502 427.199 83.1296 427.11 83.0406C427.021 82.9517 426.9 82.9018 426.775 82.9018ZM414.98 59.4008C414.41 59.255 413.806 59.3377 413.297 59.6311C412.787 59.9246 412.413 60.4057 412.253 60.9715C411.985 61.9362 411.934 62.9484 412.105 63.9351C412.105 64.5246 412.339 65.0899 412.756 65.5067C413.173 65.9236 413.738 66.1577 414.328 66.1577C414.917 66.1577 415.483 65.9236 415.899 65.5067C416.316 65.0899 416.55 64.5246 416.55 63.9351C416.55 61.8013 417.025 59.9639 414.98 59.4008ZM313.063 350.569C310.663 349.354 264.758 352.347 263.602 357.504C263.365 358.63 264.106 362.957 265.41 363.668C267.988 365.031 312.145 362.542 314.575 357.741C315.266 356.573 315.494 355.189 315.214 353.861C314.934 352.534 314.167 351.359 313.063 350.569ZM265.973 362.423C265.059 360.988 264.566 359.324 264.55 357.623C265.143 354.955 289.592 353.503 292.289 353.325C292.225 355.72 292.841 358.084 294.067 360.142C290.689 360.675 267.573 363.283 265.973 362.512V362.423ZM312.411 356.496C310.07 358.156 298.186 359.667 295.341 360.023C295.59 357.677 295.093 355.312 293.919 353.266C297.445 353.029 308.737 352.407 312.085 352.703C312.974 353.355 313.004 355.37 312.411 356.556V356.496ZM235.181 357.593C235.101 357.543 235.009 357.517 234.915 357.517C234.82 357.517 234.728 357.543 234.648 357.593C234.648 357.297 178.044 389.184 176.325 392.563C176.249 392.725 176.209 392.902 176.209 393.081C176.209 393.261 176.249 393.438 176.325 393.6C178.133 398.786 237.197 452.189 239.656 453.404C240.368 453.76 241.257 453.138 244.042 451.656C249.969 448.485 300.557 421.457 305.773 417.101C307.225 415.619 308.114 402.283 307.314 400.772C306.514 399.26 235.181 357.889 235.181 357.593ZM240.308 450.945C233.996 445.936 184.001 400.89 178.459 393.244C183.616 388.384 233.492 359.49 235.004 358.6C242.649 363.253 297.683 396.741 304.736 401.483C301.008 402.56 297.462 404.189 294.215 406.314C292.526 407.944 296.734 410.966 302.572 416.627C293.652 422.376 249.406 446.084 240.308 450.945ZM304.262 414.938C303.965 414.641 296.823 407.677 296.497 407.41C299.376 405.613 302.343 403.961 305.388 402.461C305.397 406.648 305 410.827 304.202 414.938H304.262Z" fill="black"/>
<path fill-rule="evenodd" clip-rule="evenodd" d="M292.383 409.484C290.309 410.373 265 418.76 257.858 421.665C255.759 422.711 253.471 423.325 251.131 423.472C250.716 423.472 253.116 418.849 271.283 404.683C273.179 403.202 276.825 400.386 277.21 398.075C278.958 390.429 258.243 401.868 239.721 409.099C237.806 410.128 235.715 410.791 233.557 411.055C233.349 409.84 237.528 406.017 237.795 405.721C248.849 393.511 262.866 388.473 261.918 383.968C260.466 376.915 234.742 390.636 229.319 392.859C224.755 394.785 217.465 397.097 217.909 397.097C216.931 397.482 217.909 398.164 218.087 398.075C218.265 397.986 227.659 395.111 229.941 394.104C233.349 392.8 256.139 381.805 259.932 384.383C261.444 385.45 245.322 394.133 236.224 404.18C234.624 405.898 230.297 409.395 231.631 412.24C231.875 412.68 232.246 413.037 232.695 413.264C233.144 413.491 233.65 413.578 234.15 413.515C238.565 413.515 268.675 398.43 274.869 397.956C273.447 399.832 271.748 401.481 269.831 402.846C265.415 406.343 252.612 416.775 249.649 421.576C248.108 424.065 249.382 425.547 251.397 425.576C254.065 425.576 257.324 423.769 265.356 420.746C292.591 410.255 293.45 410.729 293.006 409.751C292.983 409.692 292.948 409.639 292.905 409.593C292.861 409.548 292.808 409.512 292.75 409.487C292.692 409.462 292.63 409.449 292.567 409.449C292.504 409.448 292.442 409.46 292.383 409.484Z" fill="black"/>
<path fill-rule="evenodd" clip-rule="evenodd" d="M563.334 296.485C562.949 265.487 560.163 202.215 554.028 171.542C550.798 155.272 543.804 133.016 530.794 122.259C525.282 117.724 517.162 113.368 502.433 105.218C502.611 104.833 479.169 95.3495 478.073 98.4909C477.162 93.0858 475.885 87.749 474.25 82.5174C476.443 81.8061 475.465 75.4049 476.383 71.7893C477.302 68.1738 480.77 65.5955 482.548 62.632C486.548 56.0233 487.23 44.4951 486.489 36.8195C485.778 29.6773 475.346 13.7334 468.471 11.1255C461.595 8.51761 454.542 8.60651 447.281 7.15438C441.354 5.93932 436.968 2.64979 430.33 1.82C423.692 0.990202 419.72 4.78354 414.03 4.78354C408.34 4.78354 401.939 0.367855 395.982 0.0122299C392.746 -0.0379805 389.602 1.08789 387.133 3.18079C384.664 5.2737 383.038 8.19143 382.558 11.3922C381.839 16.1631 382.404 21.0394 384.196 25.519C385.988 29.9986 388.941 33.9198 392.752 36.8787C397.392 39.8141 402.606 41.7238 408.044 42.4799C407.688 57.6236 409.289 53.5635 407.511 54.8971C405.733 56.2307 406.296 65.5659 406.918 68.1442C407.185 69.1814 407.451 69.5667 408.726 69.9816C408.014 72.9451 403.006 79.3464 407.511 80.917C408.103 81.1245 410.474 81.5394 410.711 81.6283C411.319 84.4387 412.212 87.1795 413.378 89.8077C414.528 92.45 416.207 94.8285 418.312 96.796C420.418 98.7636 422.904 100.278 425.618 101.247C429.885 102.907 433.264 103.351 435.753 104.211C436.096 105.436 436.276 106.702 436.287 107.974C425.704 110.756 415.733 115.49 406.888 121.933C390.856 134.943 368.066 188.909 362.109 194.836C359.798 197.118 305.357 207.668 297.326 213.121C295.755 214.188 295.696 215.106 295.903 217.003C293.948 217.359 285.709 218.9 284.79 220.648C284.519 221.918 284.591 223.238 284.998 224.471C277.665 223.102 270.266 222.113 262.83 221.508C261.47 221.539 260.131 221.857 258.9 222.439C257.67 223.021 256.576 223.854 255.688 224.886C253.199 227.85 255.214 227.346 252.576 226.931C246.975 226.131 226.912 232.858 224.393 234.044C224.393 232.977 224.393 232.236 223.267 231.643C219.959 230.685 216.504 230.343 213.072 230.635C210.998 232.028 218.999 231.554 222.319 233.273C222.319 235.555 222.615 258.967 222.319 263.56C222.319 264.39 222.319 264.272 221.696 264.361C218.733 264.775 214.465 264.361 213.161 265.309C213.635 254.996 213.161 229.746 211.739 228.265C210.879 227.376 195.054 225.479 177.836 223.404C177.897 210.947 177.204 198.497 175.761 186.123C172.59 158.621 165.952 126.2 145.207 109.752C146.409 110.243 147.732 110.357 149 110.078C150.694 109.406 152.517 109.123 154.335 109.249C157.298 110.049 157.684 112.212 165.093 107.233C165.567 106.907 166.811 106.996 167.789 106.018C171.138 102.669 169.449 98.1353 169.449 94.7568C169.94 92.46 170.099 90.1049 169.923 87.7628C169.832 87.4137 169.662 87.0903 169.425 86.8178C169.189 86.5454 168.893 86.3312 168.56 86.1922C168.56 85.2142 169.597 83.4657 168.115 81.569C170.249 80.4429 172.561 79.1389 171.375 76.8274C169.111 73.2056 167.243 69.3505 165.804 65.3288C164.885 61.8911 166.13 57.505 166.07 53.8006C166.07 51.252 166.337 48.1995 166.07 45.4138C168.356 43.8177 170.103 41.5646 171.079 38.9532C171.295 37.8976 171.249 36.8051 170.944 35.7716C170.639 34.7381 170.085 33.7954 169.33 33.0261C168.352 32.4038 168.145 33.0261 168.175 31.1887C168.282 30.5439 168.253 29.8839 168.089 29.251C167.926 28.6181 167.632 28.0264 167.226 27.5139C165.982 26.2989 163.137 24.9653 162.248 23.7206C160.736 21.4979 159.847 19.2753 157.002 18.3862C154.987 17.7342 153.09 19.0086 151.727 18.564C149.86 17.9713 147.934 15.9561 145.8 18.0899C145.323 18.3482 144.801 18.5099 144.262 18.5659C143.723 18.6218 143.178 18.5708 142.658 18.4159C140.88 16.9044 140.436 14.2965 137.413 13.7335C135.694 13.4371 132.316 14.2669 131.012 13.7335C128.876 12.161 126.519 10.9128 124.018 10.029C121.222 9.76275 118.401 10.0037 115.69 10.7403C113.794 11.1255 111.363 10.9181 109.378 11.2144C105.259 11.8664 104.073 15.4227 101.347 17.1415C98.6202 18.8604 94.0267 18.89 91.4187 22.7426C89.2257 26.0025 89.6999 29.5292 88.8405 32.7891C88.4848 34.1819 86.5882 35.7526 85.8769 37.1751C84.2173 40.4646 85.4917 43.7838 85.462 46.6288C85.4324 49.4738 83.4468 52.0817 84.0099 55.5195C84.4673 57.2363 85.2194 58.8608 86.2325 60.3204C86.2448 60.8008 86.1849 61.2803 86.0547 61.7429C85.1506 64.075 84.9649 66.6243 85.5213 69.0629C86.0063 71.4007 87.1355 73.5564 88.7812 75.2863C90.8557 77.0941 91.9225 76.6199 93.434 79.1982C94.0696 80.5615 95.0253 81.7511 96.2197 82.6655C98.4127 84.1473 101.11 82.873 102.414 83.525C103.225 83.9534 104.11 84.2249 105.021 84.3251C104.292 84.6938 103.662 85.2325 103.184 85.8958C87.0623 87.9407 65.7841 99.7059 52.8037 115.798C47.6768 122.407 39.0529 131.949 35.8226 139.595C18.4562 178.833 26.932 240.356 19.938 259.352L2.63089 304.487C1.80109 306.65 -0.332662 317.408 0.43786 321.113C1.68255 326.625 7.46147 319.72 10.9881 315.808C8.79506 323.602 8.8247 325.647 7.66891 356.319C7.31329 365.921 6.9873 376.383 6.83912 385.184C6.83062 385.247 6.8358 385.312 6.8543 385.373C6.8728 385.434 6.9042 385.49 6.94636 385.538C6.98851 385.586 7.04045 385.624 7.09865 385.65C7.15684 385.676 7.21994 385.689 7.28365 385.688C8.11345 385.688 7.58001 386.637 8.79506 362.158C9.65449 344.939 10.6325 328.877 10.7214 327.573C11.1601 322.508 12.2764 317.524 14.0405 312.755C22.3168 306.572 31.63 301.916 41.5423 299.004C52.574 296.053 64.2234 296.352 75.0896 299.864C78.0532 300.842 86.0251 302.827 88.8701 301.494C94.7972 298.53 110.059 288.721 112.578 282.764C113.823 279.801 114.831 277.4 115.809 275.178C120.343 275.592 125.914 276.748 130.864 276.807C136.405 276.807 139.962 275.918 146.096 270.495C168.649 270.999 193.513 270.317 205.367 269.873C213.28 272.836 237.581 281.52 243.478 287.358C245.79 289.61 247.153 295.893 247.983 302.887C249.076 311.246 249.363 319.692 248.842 328.106C232.602 331.218 211.917 336.138 195.913 340.109C195.017 339.859 194.081 339.789 193.157 339.901C188.919 340.346 190.905 342.065 189.512 337.768C189.579 337.783 189.648 337.782 189.715 337.764C189.781 337.747 189.842 337.713 189.891 337.666C189.941 337.619 189.979 337.56 190.001 337.495C190.022 337.43 190.028 337.361 190.016 337.293C189.972 331.597 189.307 325.923 188.03 320.372C187.823 319.542 186.371 319.127 185.482 318.86C175.88 316.074 138.806 312.34 130.656 314.445C125.351 315.837 88.633 334.804 86.9734 338.835C85.3138 342.865 80.8092 367.107 79.9795 371.582C60.7757 377.183 45.6319 381.806 38.2231 384.325C38.1617 384.345 38.105 384.377 38.0564 384.419C38.0079 384.462 37.9686 384.514 37.9408 384.572C37.9131 384.631 37.8975 384.694 37.8951 384.758C37.8927 384.823 37.9034 384.887 37.9267 384.947C38.2823 386.044 48.0028 381.006 147.578 354.838C148.579 357.392 149.861 359.828 151.401 362.098C148.437 362.81 145.089 364.114 144.111 366.84C143.937 367.416 143.908 368.025 144.027 368.615C144.146 369.204 144.409 369.755 144.792 370.218C147.223 372.941 150.465 374.811 154.038 375.553C160.305 377.124 166.816 377.466 173.213 376.56C179.355 376.025 185.407 374.731 191.231 372.708C197.573 370.041 197.158 366.069 194.728 364.262C192.224 362.789 189.472 361.785 186.608 361.298C189.305 356.408 186.786 358.572 190.816 357.594C193.097 357.05 195.18 355.879 196.832 354.215C199.44 351.548 201.189 344.969 198.699 341.798C211.205 338.835 261.497 326.388 273.795 327.306C296.111 328.936 458.365 395.646 496.773 408.507C496.833 408.527 496.897 408.534 496.96 408.529C497.023 408.524 497.084 408.507 497.141 408.478C497.197 408.449 497.247 408.409 497.289 408.361C497.33 408.312 497.361 408.257 497.38 408.196C497.4 408.136 497.407 408.072 497.402 408.009C497.397 407.946 497.379 407.885 497.35 407.828C497.322 407.772 497.282 407.722 497.234 407.68C497.185 407.639 497.129 407.608 497.069 407.589C487.023 404.092 464.618 395.172 437.798 384.443C439.102 381.302 442.54 371.167 445.207 367.67C446.303 366.247 446.244 366.129 456.024 366.692C481.659 368.174 504.241 367.492 528.838 359.639C543.863 354.808 551.243 343.665 555.51 328.758C556.37 329.025 558.711 329.796 559.541 329.974C559.777 330.031 560.024 330.031 560.261 329.974C560.498 329.918 560.719 329.806 560.904 329.648C563.838 326.654 563.334 302.324 563.334 296.485ZM157.98 92.712C157.178 93.0042 156.312 93.0758 155.473 92.9194C154.634 92.7631 153.852 92.3844 153.209 91.8229C152.569 91.3109 152.068 90.6464 151.752 89.8904C151.436 89.1343 151.316 88.311 151.401 87.4961C151.362 87.3743 151.372 87.2419 151.431 87.1279C151.489 87.014 151.59 86.9279 151.712 86.8886C151.834 86.8493 151.966 86.86 152.08 86.9184C152.194 86.9767 152.28 87.0779 152.32 87.1998C153.783 89.3043 155.849 90.9161 158.247 91.8229C158.323 91.886 158.379 91.9703 158.408 92.0651C158.436 92.1599 158.437 92.261 158.408 92.3559C158.38 92.4507 158.324 92.5351 158.248 92.5985C158.172 92.6618 158.078 92.7013 157.98 92.712ZM130.152 66.7513C130.254 65.8807 130.603 65.0576 131.16 64.3805C131.812 63.7285 133.797 64.1434 135.19 63.195C136.232 62.3718 137.023 61.2733 137.472 60.024C139.132 56.7345 141.769 59.2832 145.444 53.8599C146.382 52.3348 147.11 50.6899 147.608 48.97C149.682 47.9921 152.379 49.4146 154.987 45.1174C155.846 43.6653 156.409 42.1539 157.95 41.739C159.106 42.9837 160.262 47.6661 164.944 45.8583C164.944 47.4586 164.589 55.5491 164.5 56.2011C164.116 58.1542 163.907 60.1378 163.877 62.1282C163.877 68.0553 166.604 71.3152 169.627 77.509C170.101 78.4869 167.612 79.4353 166.367 80.1169C164.611 79.4701 162.794 79.0034 160.944 78.724C155.194 77.3312 150.601 80.3243 145.652 81.6876C144.813 81.6928 143.977 81.5932 143.162 81.3912C141.295 81.2134 139.339 83.1101 136.702 83.4657C136.014 83.6007 135.302 83.5259 134.657 83.2512C134.012 82.9764 133.465 82.5142 133.086 81.9247C132.767 80.8393 132.539 79.729 132.405 78.6055C132.138 77.5386 131.812 76.4717 131.575 75.4345C131.101 73.3007 132.493 72.4709 130.864 69.5074C129.737 67.4922 129.767 68.3812 130.152 66.7513ZM131.278 127.208C133.274 123.421 134.901 119.451 136.139 115.353C137.798 125.667 138.687 130.882 139.102 133.49C136.939 131.683 136.731 131.001 131.278 127.089V127.208ZM140.169 139.269C141.621 148.16 141.295 146.145 141.562 147.982C140.854 146.648 139.988 145.405 138.984 144.278C139.315 142.32 139.464 140.336 139.428 138.351L140.169 139.269ZM129.441 144.604C127.671 142.764 126.056 140.781 124.61 138.677C126.076 135.25 127.728 131.906 129.56 128.66C135.783 133.431 135.309 133.372 136.85 135.298C137.076 137.822 137.076 140.361 136.85 142.885L129.441 144.604ZM129.826 146.53C133.353 154.383 134.775 167.275 135.516 175.869C131.817 165.044 126.843 154.698 120.699 145.048C121.9 143.406 122.97 141.672 123.899 139.862C125.12 142.135 126.58 144.271 128.256 146.234C128.47 146.368 128.711 146.454 128.962 146.485C129.213 146.515 129.468 146.49 129.708 146.411L129.826 146.53ZM112.223 83.1101C112.464 83.185 112.712 83.2347 112.964 83.2583C113.654 83.2272 114.315 82.9738 114.849 82.5358C115.384 82.0978 115.762 81.4988 115.927 80.8281C116.401 80.5318 116.757 80.2058 116.727 79.6427C116.698 79.0797 110.326 70.3668 118.446 65.8919C119.162 65.8142 119.882 66 120.471 66.4145C121.06 66.829 121.478 67.4439 121.647 68.1442C122.03 69.725 122.84 71.1703 123.988 72.3228C124.078 74.217 124.326 76.1005 124.729 77.9535C124.966 79.05 124.136 80.4725 123.958 81.9839C123.544 84.9475 126.418 88.2074 127.455 90.8746C128.848 94.4605 127.9 98.3131 131.219 101.484C134.538 104.655 133.916 102.047 135.072 109.16C133.689 114.749 131.784 120.197 129.382 125.43C126.033 120.688 109.081 93.0083 105.673 86.696C106.948 85.9254 110.919 83.6731 112.104 82.9915L112.223 83.1101ZM103.332 87.0516C105.496 92.0896 127.041 126.23 127.041 126.526C126.003 129.816 120.047 143.448 117.231 144.93C111.037 140.514 94.0563 94.0752 92.8413 89.867C96.1847 88.4347 99.7019 87.4482 103.303 86.9331L103.332 87.0516ZM133.916 217.892C130.656 216.855 120.136 181.144 110.741 161.377C105.11 149.523 94.0563 129.934 81.9947 124.718C68.9551 119.117 44.7132 132.542 42.135 149.968C40.5606 161.46 41.4907 173.157 44.8614 184.256C58.8494 226.546 77.7864 260.271 118.239 269.932C119.187 268.035 115.838 269.606 142.451 270.317C141.147 271.332 139.759 272.234 138.302 273.014C133.323 275.711 123.87 273.548 116.876 272.777L117.765 270.851C76.0972 261.545 56.5971 226.398 42.6388 184.908C39.1136 173.474 38.1026 161.414 39.6752 149.553C42.3424 130.705 67.4437 117.191 81.3427 121.873C84.8866 123.194 88.131 125.209 90.8853 127.8C89.5636 115.925 89.2365 103.96 89.9073 92.0303C90.4519 91.5466 91.0369 91.1104 91.6558 90.7264C94.2045 99.617 108.726 142.114 116.105 146.826C116.573 147.103 117.121 147.213 117.659 147.137C118.198 147.062 118.695 146.806 119.069 146.411C125.737 157.88 131.96 169.616 134.449 181.974C135.858 188.794 136.218 195.79 135.516 202.719C131.308 185.293 119.661 160.103 106.414 148.041C119.958 171.424 129.826 208.824 134.242 216.203C136.008 216.69 137.813 217.027 139.636 217.211C138.865 199.429 138.272 162.355 130.745 146.263C131.664 146.263 138.154 144.87 138.154 144.87C139.324 146.276 140.319 147.818 141.117 149.464C142.332 151.805 141.918 150.027 143.755 162.474C152.646 219.937 152.142 219.641 153.298 220.263C147.489 219.522 137.265 218.9 133.916 217.892ZM153.594 206.038C142.036 140.425 141.918 138.588 137.057 111.204C137.443 109.901 137.739 108.834 137.946 108.063C139.784 110.404 149.801 123.236 150.897 126.052C149.267 127.504 143.399 129.993 145.177 131.979C145.978 132.898 152.586 138.617 154.661 140.692C155.787 145.463 154.009 197.74 153.594 206.038ZM81.1649 371.196C81.9947 367.433 87.418 342.954 88.9294 339.516C90.0259 336.967 125.766 318.001 131.397 316.578C139.517 314.445 183.733 318.831 186.815 320.816C188.207 325.985 189.022 331.293 189.245 336.642C184.267 330.714 145.741 332.285 145.326 340.642C145.317 340.917 145.375 341.189 145.494 341.436C145.612 341.684 145.788 341.899 146.007 342.065C145.988 345.647 146.396 349.218 147.222 352.704C124.462 358.838 101.702 365.24 81.1649 371.196ZM194.165 366.573C195.676 371.463 177.925 373.567 172.798 374.16C166.71 375.027 160.512 374.715 154.542 373.241C151.934 372.53 147.104 370.633 146.185 368.263C145.741 367.136 147.193 366.069 148.26 365.506C149.611 364.8 151.044 364.263 152.527 363.906C154.141 366.131 156.307 367.898 158.81 369.033C161.773 370.337 174.428 369.418 178.814 368.47C180.74 368.055 182.785 367.492 185.689 362.839C187.467 363.106 193.661 364.943 194.165 366.573ZM179.999 365.536C177.777 366.87 162.07 367.937 159.669 366.959C151.727 363.788 147.4 351.4 147.074 342.658C153.531 344.078 160.157 344.567 166.752 344.11C171.701 343.458 183.407 341.442 187.704 339.279C190.283 348.999 184.83 362.721 179.999 365.536ZM196.565 350.244C195.763 351.831 194.636 353.232 193.258 354.355C191.879 355.478 190.28 356.299 188.564 356.764C190.114 352.607 190.849 348.189 190.727 343.754C190.961 343.264 191.301 342.832 191.722 342.489C192.142 342.146 192.634 341.9 193.161 341.77C193.688 341.64 194.238 341.628 194.77 341.735C195.302 341.842 195.804 342.066 196.239 342.391C198.462 343.843 197.484 347.725 196.565 350.244ZM501.811 106.078C521.844 117.132 530.735 121.755 537.136 131.446C533.109 127.983 527.985 126.061 522.674 126.022C503.678 125.37 494.343 153.494 489.482 171.69C481.422 202.037 486.371 240.445 485.926 246.076C480.799 250.847 454.542 264.479 442.807 270.851C444.436 263.975 450.245 237.452 454.038 226.99C459.136 212.943 473.805 180.225 474.783 173.113C475.05 171.009 474.635 170.742 468.412 166.712C470.812 166.712 477.302 166.06 479.317 165.674C480.177 165.674 480.621 165.289 480.947 163.481C482.044 157.199 484.178 105.426 484.355 99.9134C484.148 99.7948 499.262 104.625 501.9 106.078H501.811ZM478.962 98.9947C480.311 98.8974 481.667 99.0481 482.963 99.4392C481.481 120.925 479.999 158.71 478.606 163.541C477.035 163.837 471.464 164.222 469.301 164.371C464.677 164.637 464.559 164.371 464.085 165.023C463.611 165.674 464.263 166.564 465.122 167.156C466.633 168.223 471.671 171.394 472.383 172.224C471.699 175.752 470.646 179.199 469.241 182.507C452.497 226.961 453.505 213.299 442.243 262.049C442.996 238.696 445.153 215.41 448.704 192.317C451.075 179.603 453.949 167.66 463.522 140.455C467.285 129.934 475.08 109.782 475.376 109.901C476.863 106.359 478.091 102.714 479.051 98.9947H478.962ZM427.485 280.868C428.048 283.061 428.048 282.764 427.87 282.794L426.952 282.616C426.952 282.32 425.351 252.566 426.122 240.267C427.515 218.485 429.293 194.865 430.952 172.105C431.752 161.081 434.775 137.402 434.686 138.291L437.65 136.098C438.88 138.552 440.276 140.918 441.829 143.181C442.421 143.981 443.221 144.989 444.17 145.078C443.518 150.442 433.649 216.618 430.745 258.908C429.145 281.934 430.745 277.045 428.404 279.149C428.126 279.336 427.903 279.594 427.757 279.896C427.611 280.198 427.548 280.533 427.574 280.868H427.485ZM445.088 145.107C447.341 145.107 449.771 140.366 452.734 138.351C453.89 139.566 457.387 145.374 459.699 146.145C449.889 173.054 439.398 210.572 439.428 272.51C436.909 273.874 433.501 275.83 430.982 277.282C432.464 252.062 443.192 169.29 445.177 145.107H445.088ZM476.206 105.277C475.257 108.241 461.18 142.233 460.203 143.803C458.674 142.305 457.313 140.646 456.142 138.854C453.653 135.506 452.794 134.409 448.556 139.18C454.839 127.326 467.108 115.294 472.264 109.308C477.184 103.677 476.532 104.151 476.206 105.277ZM409.822 43.0429C412.033 43.7239 414.398 43.7239 416.609 43.0429C418.3 42.2912 420.168 42.0244 422.002 42.2724C424.592 43.4663 427.255 44.4956 429.974 45.3545C433.338 45.3249 436.695 45.0575 440.021 44.5543C441.545 45.2664 442.835 46.3963 443.743 47.8126C444.651 49.229 445.138 50.8738 445.148 52.5559C439.625 53.3579 434.293 55.1553 429.411 57.8607C429.112 56.8876 428.517 56.0315 427.71 55.4105C426.904 54.7895 425.924 54.4341 424.907 54.3933C420.047 53.8086 415.139 53.749 410.267 54.2155C409.835 50.4287 409.686 46.6148 409.822 42.8058V43.0429ZM408.666 68.322C407.926 67.018 406.473 56.9123 407.955 55.8158C408.192 56.1122 407.155 55.1935 412.786 55.2527C416.755 55.378 420.713 55.7342 424.64 56.3196C427.307 56.7938 427.752 58.0088 427.603 60.5871C427.603 65.3584 427.752 64.8843 427.603 66.366C427.603 66.7809 427.426 67.8774 427.1 68.1145C421.004 69.2177 414.759 69.2077 408.666 68.0849V68.322ZM435.901 101.721C427.781 99.4096 420.343 99.1132 415.334 88.8001C412.104 82.1617 413.882 80.2354 410.948 79.376C409.86 79.2463 408.788 79.008 407.748 78.6648C407.748 76.6792 410.237 72.5302 410.711 70.4261C415.633 71.0145 420.607 71.0145 425.529 70.4261C428.493 69.9816 430.063 69.4778 429.589 63.4618V58.8683C434.242 57.4458 444.11 55.1046 445.296 54.7786C445.303 56.3907 445.522 57.9949 445.948 59.5499C446.411 60.5276 447.21 61.3061 448.2 61.7429C448.358 61.8133 448.531 61.8462 448.704 61.839C448.877 61.8319 449.046 61.7849 449.198 61.7017C449.35 61.6186 449.481 61.5015 449.58 61.3596C449.68 61.2177 449.745 61.0547 449.771 60.8835C450.452 58.1274 450.986 55.6676 451.193 54.4822C451.193 55.1342 451.46 52.4077 453.416 51.3409C456.38 49.7998 460.973 53.2375 461.299 58.0977C461.477 60.4686 459.106 64.7657 457.328 69.7148C456.261 72.6784 462.722 73.9527 464.974 75.0492C465.804 76.9755 465.3 79.1389 466.426 80.2947C468.117 81.3365 469.97 82.0878 471.909 82.5174C473.953 89.0679 475.44 95.7796 476.354 102.581C468.826 110.493 467.137 112.39 465.122 114.435C457.249 121.915 450.573 130.561 445.326 140.069C443.221 127.711 439.221 116.806 438.776 113.22C438.42 110.434 439.013 105.514 437.709 102.877C437.512 102.563 437.247 102.297 436.935 102.097C436.622 101.897 436.269 101.769 435.901 101.721ZM436.761 111.768C438.183 117.043 441.977 134.172 443.073 141.047C441.265 138.321 439.043 133.816 439.043 133.816C438.966 133.656 438.853 133.514 438.714 133.403C438.575 133.292 438.413 133.213 438.239 133.173C438.065 133.133 437.885 133.133 437.711 133.173C437.537 133.212 437.374 133.29 437.235 133.401L435.072 135.061C435.901 127.356 436.731 119.502 436.85 111.768H436.761ZM435.901 109.13C435.635 130.942 431.278 150.383 429.5 172.105C423.573 245.127 423.573 241.541 424.166 267.383C420.965 244.031 416.49 198.599 414.03 173.972C415.779 172.639 424.225 166.208 425.173 164.252C425.618 163.304 425.173 162.326 423.04 162.326C419.331 162.605 415.606 162.605 411.897 162.326C414.149 153.139 427.04 119.621 430.478 110.73C432.227 110.227 433.679 109.723 435.901 109.13ZM298.126 215.344C302.72 210.513 360.361 199.251 363.502 196.199C367.918 191.754 380.068 164.163 392.456 143.24C402.976 125.459 408.696 118.88 429.174 111.323C424.255 123.503 414.653 147.33 410.326 161.2C410.059 162.059 409.674 163.007 410.326 163.57C411.956 165.171 418.772 164.222 422.684 164.282C419.928 167.038 412.341 172.639 412.341 172.639C412.195 172.747 412.08 172.891 412.007 173.058C411.934 173.224 411.906 173.407 411.926 173.587C413.171 187.338 420.817 269.399 424.136 281.312L418.802 279.949C415.354 278.256 411.609 277.249 407.777 276.985C414.534 243.379 412.104 233.984 412.934 215.67C412.934 213.773 404.932 175.662 404.873 175.365C404.873 175.24 404.823 175.119 404.734 175.03C404.645 174.941 404.525 174.891 404.399 174.891C404.273 174.891 404.153 174.941 404.064 175.03C403.975 175.119 403.925 175.24 403.925 175.365C404.429 188.346 408.103 200.704 410.622 214.869C401.139 223.76 391.211 236.059 375.06 240.06C365.073 242.579 318.308 252.773 312.084 253.218C306.987 247.528 297.326 219.137 298.126 215.344ZM292.495 219.285C292.495 219.285 296.052 218.426 295.992 217.863C298.76 228.276 302.245 238.485 306.424 248.417C303.73 249.25 300.976 249.874 298.185 250.284C296.496 250.284 297.682 251.766 293.562 241.986C291.024 235.906 288.847 229.682 287.042 223.345C286.539 221.3 285.679 221.508 292.495 219.285ZM257.792 225.538C260.133 222.96 261.823 222.575 285.235 225.538C287.317 232.604 289.841 239.533 292.792 246.283C287.974 250.039 282.452 252.79 276.552 254.373C276.374 253.099 275.959 253.484 276.966 253.573C277.817 253.597 278.663 253.43 279.441 253.084C280.219 252.738 280.909 252.221 281.461 251.573C282.012 250.924 282.411 250.16 282.629 249.337C282.846 248.514 282.876 247.653 282.716 246.816C282.479 243.853 274.003 237.689 271.602 235.999C273.027 236.293 274.506 236.18 275.87 235.673C275.992 235.634 276.093 235.548 276.151 235.434C276.21 235.32 276.22 235.188 276.181 235.066C276.142 234.944 276.056 234.843 275.942 234.785C275.828 234.726 275.695 234.715 275.574 234.755C270.595 236.059 265.557 230.132 264.905 229.954C262.623 229.391 264.045 234.695 258.978 237.866C258.237 238.341 255.392 237.274 255.214 235.822C254.841 234.024 254.879 232.165 255.326 230.385C255.772 228.604 256.615 226.947 257.792 225.538ZM224.66 234.873C228.453 233.51 247.775 227.524 253.347 228.946C252.72 231.314 252.579 233.783 252.932 236.207C253.12 236.977 253.472 237.697 253.964 238.318C254.456 238.94 255.076 239.448 255.782 239.808C256.488 240.168 257.264 240.371 258.055 240.405C258.847 240.438 259.637 240.3 260.371 240C262.436 238.623 263.988 236.602 264.786 234.251C267.424 235.851 280.523 244.534 280.345 247.617C280.345 249.691 279.248 251.44 277.174 251.262C275.423 250.634 273.767 249.766 272.254 248.683C270.732 247.468 269.128 246.359 267.453 245.364C267.187 245.226 266.879 245.191 266.589 245.267C266.298 245.342 266.046 245.522 265.88 245.772C265.715 246.022 265.648 246.325 265.692 246.622C265.736 246.918 265.888 247.188 266.12 247.379C266.12 247.379 268.342 249.039 270.802 250.639C274.507 253.603 275.781 256.329 271.187 257.722C270.468 257.936 269.713 257.999 268.968 257.907C268.224 257.815 267.506 257.571 266.861 257.189C266.106 255.698 265.104 254.345 263.897 253.188C263.359 251.803 262.394 250.626 261.142 249.827C259.889 249.028 258.415 248.648 256.933 248.743C255.392 248.921 255.273 249.691 255.421 248.98C256.133 245.453 251.628 243.319 248.487 243.912C243.419 244.92 240.604 251.617 238.944 256.507C237.936 258.641 241.908 256.27 224.571 262.434C225.059 253.827 225.059 245.199 224.571 236.592C224.423 234.547 224.363 235.021 224.66 234.873ZM239.774 256.833C241.404 253.336 244.99 246.787 248.813 246.194C250.294 245.927 253.288 246.935 252.962 248.446C252.32 252.459 250.469 256.181 247.657 259.115C248.013 259.708 238.737 259.886 239.774 256.833ZM256.548 251.173C257.259 250.462 261.408 251.914 261.526 254.136C261.734 257.841 258.207 262.256 255.155 264.301C254.177 264.983 250.324 261.842 249.435 260.567C251.552 257.251 253.93 254.11 256.548 251.173ZM261.556 261.041C261.763 260.745 264.727 254.166 265.231 259.619C265.438 261.753 262.267 262.879 260.193 262.582C260.675 262.094 261.13 261.58 261.556 261.041ZM327.465 299.568C314.989 309.258 313.211 322.002 315.255 337.205C295.222 330.092 279.93 325.35 273.973 324.847C265.911 325.013 257.887 326.006 250.028 327.81C250.828 319.838 250.472 291.862 244.812 286.113C239.152 280.364 218.614 272.51 210.879 269.547H212.628C213.309 269.191 212.183 266.079 214.762 265.902C217.873 265.724 222.23 266.909 223.652 265.665C224.077 265.019 224.322 264.273 224.363 263.501C227.623 262.464 235.299 260.123 239.181 259.115C240.486 260.151 242.014 260.87 243.645 261.214C245.275 261.559 246.963 261.52 248.576 261.101C249.465 263.086 253.614 267.443 256.192 266.02C256.907 265.607 257.591 265.142 258.237 264.627C260.111 265.147 262.102 265.064 263.927 264.39C264.892 264.127 265.754 263.574 266.395 262.805C267.037 262.037 267.427 261.09 267.513 260.093C269.064 260.539 270.719 260.467 272.226 259.89C273.734 259.313 275.013 258.261 275.87 256.892C282.367 255.432 288.448 252.514 293.651 248.357C294.214 249.572 294.748 250.61 295.192 251.321C295.339 251.571 295.547 251.78 295.795 251.931C296.043 252.081 296.325 252.166 296.615 252.18C299.578 252.477 306.572 249.217 306.869 249.217C307.884 251.335 309.147 253.324 310.632 255.144C311.166 255.677 312.055 255.529 312.885 255.44C321.479 254.403 364.154 245.216 375.564 242.371C390.381 238.667 400.043 228.265 410.207 218.366C409.644 235.377 411.867 243.675 405.14 277.074C391.151 278.814 377.292 281.467 363.65 285.017C351.707 288.425 337.482 291.803 327.465 299.597V299.568ZM370.703 358.038L369.666 357.623C369.429 342.569 373.163 328.699 384.188 318.416C385.163 318.664 386.153 318.852 387.151 318.979C375.801 328.699 371.326 342.865 370.703 358.038ZM417.498 308.636C408.607 313.852 411.215 316.667 403.065 317.527C396.536 317.975 389.977 317.466 383.595 316.015C378.438 314.356 381.165 312.37 386.558 311.777C387.477 311.925 394.708 311.985 398.116 311.777C398.395 311.733 398.648 311.591 398.831 311.376C399.014 311.162 399.115 310.889 399.115 310.607C399.115 310.325 399.014 310.052 398.831 309.837C398.648 309.623 398.395 309.481 398.116 309.436C394.273 309.105 390.41 309.046 386.558 309.258C384.105 309.223 381.662 308.935 379.268 308.399C379.03 308.01 378.891 307.569 378.865 307.114C378.839 306.658 378.927 306.204 379.12 305.791C382.232 303.924 396.901 304.635 399.331 304.546C399.617 304.501 399.878 304.356 400.066 304.135C400.254 303.915 400.357 303.635 400.357 303.346C400.357 303.057 400.254 302.777 400.066 302.557C399.878 302.337 399.617 302.191 399.331 302.146C394.469 302.249 389.605 301.991 384.78 301.375C382.706 301.02 377.875 299.982 378.231 297.878C378.883 294.085 386.677 297.345 392.16 296.96C396.027 296.902 399.857 296.18 403.48 294.826C403.751 294.743 403.979 294.556 404.112 294.306C404.245 294.056 404.274 293.763 404.191 293.492C404.109 293.221 403.922 292.994 403.672 292.86C403.422 292.727 403.129 292.698 402.858 292.781C399.15 293.672 395.388 294.326 391.596 294.737C391.356 294.687 391.142 294.551 390.995 294.355C390.847 294.158 390.777 293.915 390.796 293.67C390.839 293.116 390.979 292.574 391.211 292.07C392.739 290.077 394.791 288.548 397.138 287.654C405.555 284.157 411.956 287.654 421.587 288.276C422.796 293.756 424.33 299.16 426.181 304.457C423.227 305.638 420.365 307.035 417.616 308.636H417.498ZM428.819 305.02C427.781 301.523 423.929 288.839 423.543 285.876C425.073 285.129 426.684 284.562 428.344 284.187C429.708 289.254 432.227 298.056 433.857 302.976C432.266 303.771 430.622 304.454 428.937 305.02H428.819ZM437.205 305.02C435.635 301.464 430.982 284.898 429.915 280.749C435.012 276.57 480.77 254.077 487.586 247.231C489.719 245.098 482.518 204.941 490.964 171.898C495.469 154.117 504.3 126.17 522.526 126.793C535.032 127.208 542.174 136.75 546.234 148.664C553.673 170.594 550.709 201.03 550.709 200.733C550.709 225.597 541.819 262.968 524.037 280.749C510.612 294.203 445.563 306.532 437.324 305.109L437.205 305.02ZM559.392 327.543C555.925 326.625 540.011 320.757 533.284 320.194C498.343 317.23 500.507 310.592 478.902 301.109C490.757 298.145 517.103 291.27 525.845 282.616C544.308 264.301 552.843 226.546 552.754 201C553.44 192.053 553.44 183.067 552.754 174.121C559.304 211.283 563.334 316.282 559.392 327.543Z" fill="black"/>
<path fill-rule="evenodd" clip-rule="evenodd" d="M101.163 127.209L91.4429 128.335C94.4062 131.122 97.1047 134.177 99.5037 137.463L102.201 128.572C102.283 128.413 102.318 128.233 102.303 128.054C102.287 127.876 102.221 127.705 102.113 127.563C102.004 127.42 101.857 127.311 101.689 127.248C101.521 127.186 101.339 127.172 101.163 127.209ZM382.285 397.662C379.841 396.114 377.142 395.011 374.313 394.402C381.041 383.467 379.826 370.694 378.047 369.567C376.374 367.862 374.145 366.811 371.765 366.604C362.874 364.737 341.329 364.589 335.639 369.33C334.394 370.368 333.654 372.057 334.869 373.183C334.29 380.208 335.762 387.249 339.106 393.454C336.143 394.017 332.705 395.143 331.579 397.81C331.385 398.384 331.332 398.996 331.425 399.594C331.518 400.193 331.754 400.76 332.113 401.248C334.387 404.069 337.501 406.093 341.003 407.027C347.188 408.909 353.678 409.583 360.118 409.012C366.271 408.762 372.371 407.767 378.285 406.049C384.834 403.619 384.775 399.618 382.285 397.662ZM335.906 373.716C342.276 375.456 348.863 376.275 355.465 376.147C362.664 375.654 369.773 374.26 376.625 371.998C377.219 376.075 377 380.229 375.983 384.221C374.966 388.214 373.17 391.966 370.698 395.261C370.101 396.308 369.238 397.18 368.198 397.788C367.158 398.397 365.976 398.721 364.771 398.729C360.622 399.262 349.301 399.559 346.99 398.521C339.492 395.054 335.787 382.459 335.906 373.716ZM359.999 406.315C353.882 406.895 347.71 406.271 341.833 404.478C339.172 403.753 336.723 402.402 334.691 400.537C334.217 400.033 333.446 399.025 333.683 398.403C334.454 396.447 338.217 395.439 340.292 395.084C341.777 397.349 343.818 399.195 346.219 400.448C349.183 401.959 365.601 401.781 368.653 400.211C370.556 399.049 372.168 397.468 373.365 395.587C375.114 396.091 381.218 398.166 381.633 399.825C382.967 404.923 365.334 406.138 359.999 406.464V406.315Z" fill="black"/>
</svg>
