<svg width="25" height="25" viewBox="0 0 25 25" fill="none" xmlns="http://www.w3.org/2000/svg">
<path d="M22.8172 12.7332C22.8172 11.8699 22.7457 11.2399 22.591 10.5865H12.5315V14.4832H18.4362C18.3172 15.4515 17.6743 16.9099 16.2457 17.8898L16.2257 18.0203L19.4064 20.435L19.6267 20.4565C21.6505 18.6249 22.8172 15.9298 22.8172 12.7332Z" fill="#4285F4"/>
<path d="M12.5302 23C15.423 23 17.8515 22.0666 19.6254 20.4567L16.2444 17.8899C15.3397 18.5083 14.1254 18.9399 12.5302 18.9399C9.69685 18.9399 7.29212 17.1083 6.4349 14.5766L6.30925 14.5871L3.00199 17.0954L2.95874 17.2132C4.72062 20.6433 8.33966 23 12.5302 23Z" fill="#34A853"/>
<path d="M6.43662 14.5767C6.21044 13.9234 6.07954 13.2233 6.07954 12.5C6.07954 11.7767 6.21044 11.0767 6.42472 10.4234L6.41873 10.2842L3.07002 7.7356L2.96046 7.78667C2.2343 9.21002 1.81763 10.8084 1.81763 12.5C1.81763 14.1917 2.2343 15.79 2.96046 17.2133L6.43662 14.5767Z" fill="#FBBC05"/>
<path d="M12.5302 6.05997C14.5421 6.05997 15.8992 6.91163 16.673 7.62335L19.6969 4.73C17.8398 3.03834 15.423 2 12.5302 2C8.33969 2 4.72063 4.35665 2.95874 7.78662L6.42302 10.4233C7.29214 7.89166 9.69689 6.05997 12.5302 6.05997Z" fill="#EB4335"/>
</svg>
