<svg width="38" height="33" viewBox="0 0 38 33" fill="none" xmlns="http://www.w3.org/2000/svg">
<path id="Heart-Icon" d="M21.3035 30.0811C22.104 29.6134 22.9276 28.9736 23.8254 28.2659C24.3209 27.8754 24.8255 27.4863 25.335 27.0934L25.3382 27.0909L25.3382 27.0909L25.3519 27.0804C27.4916 25.4307 29.7176 23.7147 31.5604 21.6395C33.8097 19.1067 35.4017 16.1222 35.4017 12.2435C35.4017 8.42163 33.2415 5.19778 30.2634 3.83652C27.5988 2.61852 24.1295 2.83277 20.785 5.75796L20.4901 6.01591L20.7672 6.29292L23.2644 8.78932L23.2645 8.78935C23.6232 9.14795 23.6234 9.72941 23.2647 10.0881L23.2647 10.0882C22.9061 10.4469 22.3246 10.447 21.966 10.0884L21.9659 10.0884L18.5413 6.66495L18.5397 6.66339L18.5255 6.64901C14.9064 2.88992 11.0338 2.50209 8.11441 3.83652L8.26674 4.16978L8.1144 3.83653C5.13639 5.19778 2.9762 8.42163 2.9762 12.2435C2.9762 16.1222 4.56821 19.1067 6.81743 21.6395L7.09142 21.3962L21.1186 29.7648M21.3035 30.0811L21.1186 29.7648M21.3035 30.0811C21.3035 30.0811 21.3035 30.0811 21.3035 30.0811L21.1186 29.7648M21.3035 30.0811C20.5028 30.5492 19.8123 30.7911 19.189 30.7911C18.5655 30.7911 17.8751 30.5492 17.0744 30.0811M21.1186 29.7648C20.3434 30.2179 19.7193 30.4247 19.189 30.4247C18.6586 30.4247 18.0345 30.2179 17.2593 29.7648M17.0744 30.0811C17.0744 30.0811 17.0744 30.0811 17.0744 30.0811L17.2593 29.7648M17.0744 30.0811C16.2739 29.6133 15.4503 28.9736 14.5526 28.2659M17.0744 30.0811L17.2593 29.7648M17.2593 29.7648L14.5526 28.2659M14.5526 28.2659C14.5526 28.2659 14.5526 28.2659 14.5526 28.2659L14.7795 27.9782L14.5526 28.2659ZM14.5526 28.2659C14.0571 27.8753 13.5524 27.4862 13.0428 27.0933L13.0398 27.0909L13.2635 26.8007L13.0398 27.0909L14.5526 28.2659ZM21.0263 6.03377L21.2853 5.77463L21.3063 5.79557C21.2129 5.8728 21.1196 5.95219 21.0263 6.03377ZM21.0263 6.03377L21.2675 6.30959C21.2737 6.30419 21.2798 6.29881 21.286 6.29343L21.0263 6.03377ZM18.9446 4.50219L19.1889 4.72078L19.4333 4.50219C23.2962 1.04616 27.5774 0.589115 31.0271 2.16596L31.1789 1.83374L31.0271 2.16596C34.6873 3.83904 37.2385 7.73445 37.2385 12.2435C37.2385 16.6954 35.3878 20.0961 32.9339 22.8591C30.9628 25.0785 28.5458 26.9411 26.3818 28.6073C25.8925 28.9839 25.416 29.3509 24.9625 29.7084C24.0816 30.4028 23.1593 31.1242 22.2302 31.667L22.4151 31.9834L22.2302 31.6671C21.3014 32.2098 20.2787 32.6279 19.189 32.6279C18.0992 32.6279 17.0765 32.2098 16.1477 31.6671C15.2186 31.1242 14.2962 30.4028 13.4155 29.7085L13.4155 29.7084C12.9619 29.3509 12.4854 28.9839 11.9961 28.6072C9.83216 26.9411 7.41502 25.0785 5.44402 22.8591L5.17004 23.1025L5.44402 22.8591C2.99012 20.0961 1.13937 16.6954 1.13937 12.2435C1.13937 7.73445 3.69059 3.83903 7.35077 2.16596C10.8004 0.589114 15.0818 1.04616 18.9446 4.50219Z" fill="white" stroke="#145959" stroke-width="0.732851"/>
</svg>
