<svg width="38" height="25" viewBox="0 0 38 25" fill="none" xmlns="http://www.w3.org/2000/svg">
<path d="M25.7143 10.4913C28.56 10.4913 30.84 8.19414 30.84 5.34842C30.84 2.50271 28.56 0.205566 25.7143 0.205566C22.8686 0.205566 20.5714 2.50271 20.5714 5.34842C20.5714 8.19414 22.8686 10.4913 25.7143 10.4913ZM12 10.4913C14.8457 10.4913 17.1257 8.19414 17.1257 5.34842C17.1257 2.50271 14.8457 0.205566 12 0.205566C9.15429 0.205566 6.85714 2.50271 6.85714 5.34842C6.85714 8.19414 9.15429 10.4913 12 10.4913ZM12 13.9199C8.00571 13.9199 0 15.9256 0 19.9199V24.2056H24V19.9199C24 15.9256 15.9943 13.9199 12 13.9199ZM25.7143 13.9199C25.2171 13.9199 24.6514 13.9541 24.0514 14.0056C26.04 15.4456 27.4286 17.3827 27.4286 19.9199V24.2056H37.7143V19.9199C37.7143 15.9256 29.7086 13.9199 25.7143 13.9199Z" fill="white"/>
</svg>
