<svg width="35" height="34" viewBox="0 0 35 34" fill="none" xmlns="http://www.w3.org/2000/svg">
<g id="Message-Icon">
<path id="Vector" d="M27.1843 14.9591V21.376C27.1843 21.7931 27.1683 22.1942 27.1202 22.5792C26.7512 26.9106 24.2005 29.0603 19.5001 29.0603H18.8584C18.4574 29.0603 18.0723 29.2528 17.8317 29.5736L15.9066 32.1404C15.0564 33.2794 13.6768 33.2794 12.8265 32.1404L10.9014 29.5736C10.6929 29.3009 10.2277 29.0603 9.87476 29.0603H9.23308C4.1156 29.0603 1.54883 27.7929 1.54883 21.376V14.9591C1.54883 10.2588 3.71455 7.70806 8.02991 7.33909C8.41493 7.29096 8.81598 7.2749 9.23308 7.2749H19.5001C24.6176 7.2749 27.1843 9.84168 27.1843 14.9591Z" stroke="white" stroke-width="1.37409" stroke-miterlimit="10" stroke-linecap="round" stroke-linejoin="round"/>
<path id="Vector_2" d="M33.6014 8.54216V14.959C33.6014 19.6755 31.4357 22.2101 27.1204 22.5791C27.1685 22.1941 27.1845 21.793 27.1845 21.3759V14.959C27.1845 9.84159 24.6178 7.27481 19.5003 7.27481H9.23332C8.81622 7.27481 8.41517 7.29087 8.03015 7.339C8.39912 3.02363 10.9498 0.85791 15.6502 0.85791H25.9172C31.0347 0.85791 33.6014 3.42469 33.6014 8.54216Z" stroke="white" stroke-width="1.37409" stroke-miterlimit="10" stroke-linecap="round" stroke-linejoin="round"/>
<path id="Vector_3" d="M19.99 18.9053H20.0044" stroke="white" stroke-width="3.20845" stroke-linecap="round" stroke-linejoin="round"/>
<path id="Vector_4" d="M14.3755 18.9053H14.3899" stroke="white" stroke-width="3.20845" stroke-linecap="round" stroke-linejoin="round"/>
<path id="Vector_5" d="M8.76013 18.9053H8.77457" stroke="white" stroke-width="3.20845" stroke-linecap="round" stroke-linejoin="round"/>
</g>
</svg>
