<svg width="46" height="46" viewBox="0 0 46 46" fill="none" xmlns="http://www.w3.org/2000/svg">
<path d="M23.4492 4.56152C13.0992 4.56152 4.69922 12.9615 4.69922 23.3115C4.69922 33.6615 13.0992 42.0615 23.4492 42.0615C33.7992 42.0615 42.1992 33.6615 42.1992 23.3115C42.1992 12.9615 33.7992 4.56152 23.4492 4.56152ZM23.4492 38.3115C15.1805 38.3115 8.44922 31.5803 8.44922 23.3115C8.44922 15.0428 15.1805 8.31152 23.4492 8.31152C31.718 8.31152 38.4492 15.0428 38.4492 23.3115C38.4492 31.5803 31.718 38.3115 23.4492 38.3115ZM32.0555 15.024L19.6992 27.3803L14.843 22.5428L12.1992 25.1865L19.6992 32.6865L34.6992 17.6865L32.0555 15.024Z" fill="white"/>
</svg>
