<svg width="47" height="49" viewBox="0 0 47 49" fill="none" xmlns="http://www.w3.org/2000/svg">
<path d="M23.2842 4.31152C12.7042 4.31152 4.13672 13.2715 4.13672 24.3115C4.13672 35.3515 12.7042 44.3115 23.2842 44.3115C33.8834 44.3115 42.4701 35.3515 42.4701 24.3115C42.4701 13.2715 33.8834 4.31152 23.2842 4.31152ZM23.3034 40.3115C14.8317 40.3115 7.97005 33.1515 7.97005 24.3115C7.97005 15.4715 14.8317 8.31152 23.3034 8.31152C31.7751 8.31152 38.6367 15.4715 38.6367 24.3115C38.6367 33.1515 31.7751 40.3115 23.3034 40.3115ZM24.2617 14.3115H21.3867V26.3115L31.4492 32.6115L32.8867 30.1515L24.2617 24.8115V14.3115Z" fill="white"/>
</svg>
