<svg width="47" height="57" viewBox="0 0 47 57" fill="none" xmlns="http://www.w3.org/2000/svg">
<circle cx="23.2314" cy="28.3843" r="22.8623" fill="#508FF7"/>
<path d="M28.3305 34.5443C28.3305 33.6643 28.3705 32.8643 28.4505 32.1443L28.3705 32.0243C27.6238 32.1309 26.8105 32.2109 25.9305 32.2643C25.0505 32.2909 24.2371 32.2909 23.4905 32.2643V27.0643L33.9305 27.0243V40.6243C32.7038 41.1843 31.3038 41.6243 29.7305 41.9443C28.1838 42.2376 26.2105 42.3843 23.8105 42.3843C20.6105 42.3843 18.1038 41.9576 16.2905 41.1043C14.4771 40.2243 13.1971 38.8243 12.4505 36.9043C11.7038 34.9576 11.3305 32.3709 11.3305 29.1443C11.3305 26.5309 11.6238 24.3843 12.2105 22.7043C12.8238 21.0243 13.7038 19.7309 14.8505 18.8243C16.0238 17.8909 17.4505 17.2509 19.1305 16.9043C20.8105 16.5309 22.7305 16.3443 24.8905 16.3443C26.1705 16.3443 27.4505 16.3976 28.7305 16.5043C30.0371 16.6109 31.3305 16.8109 32.6105 17.1043V22.3843L32.4905 22.4643C31.3705 22.1976 30.2505 22.0109 29.1305 21.9043C28.0371 21.7976 26.9305 21.7443 25.8105 21.7443C24.1838 21.7443 22.7571 21.9176 21.5305 22.2643C20.3305 22.5843 19.3971 23.2643 18.7305 24.3043C18.0638 25.3443 17.7305 26.9576 17.7305 29.1443C17.7305 31.3043 17.9038 32.9576 18.2505 34.1043C18.6238 35.2243 19.3038 35.9976 20.2905 36.4243C21.3038 36.8243 22.7438 37.0243 24.6105 37.0243C24.8505 37.0243 25.2238 37.0243 25.7305 37.0243C26.2371 36.9976 26.7438 36.9709 27.2505 36.9443C27.7571 36.9176 28.1171 36.8776 28.3305 36.8243V34.5443Z" fill="white"/>
</svg>
