<svg width="47" height="47" viewBox="0 0 47 47" fill="none" xmlns="http://www.w3.org/2000/svg">
<circle cx="23.2559" cy="23.4961" r="23.127" fill="#D9D9D9"/>
<path d="M22.0078 17.2461H24.5078V19.7461H22.0078V17.2461ZM22.0078 22.2461H24.5078V29.7461H22.0078V22.2461ZM23.2578 10.9961C16.3578 10.9961 10.7578 16.5961 10.7578 23.4961C10.7578 30.3961 16.3578 35.9961 23.2578 35.9961C30.1578 35.9961 35.7578 30.3961 35.7578 23.4961C35.7578 16.5961 30.1578 10.9961 23.2578 10.9961ZM23.2578 33.4961C17.7453 33.4961 13.2578 29.0086 13.2578 23.4961C13.2578 17.9836 17.7453 13.4961 23.2578 13.4961C28.7703 13.4961 33.2578 17.9836 33.2578 23.4961C33.2578 29.0086 28.7703 33.4961 23.2578 33.4961Z" fill="black"/>
</svg>
