<svg width="45" height="46" viewBox="0 0 45 46" fill="none" xmlns="http://www.w3.org/2000/svg">
<path d="M35.2259 5.81641H9.55924C7.54258 5.81641 5.89258 7.50391 5.89258 9.56641V35.8164C5.89258 37.8789 7.54258 39.5664 9.55924 39.5664H35.2259C37.2426 39.5664 38.8926 37.8789 38.8926 35.8164V9.56641C38.8926 7.50391 37.2426 5.81641 35.2259 5.81641ZM35.2259 35.8164H9.55924V27.2289L11.3742 29.0852L18.7076 21.5852L26.0409 29.0852L33.3742 21.6039L35.2259 23.4977V35.8164ZM35.2259 18.1727L33.3742 16.2789L26.0409 23.7977L18.7076 16.2977L11.3742 23.7977L9.55924 21.9227V9.56641H35.2259V18.1727Z" fill="black"/>
</svg>
