<svg width="47" height="47" viewBox="0 0 47 47" fill="none" xmlns="http://www.w3.org/2000/svg">
<circle cx="23.2559" cy="23.75" r="23.127" fill="#D9D9D9"/>
<path d="M25.5703 24.7319C25.5703 23.2653 24.3328 22.0653 22.8203 22.0653C21.3078 22.0653 20.0703 23.2653 20.0703 24.7319C20.0703 26.1986 21.3078 27.3986 22.8203 27.3986C24.3328 27.3986 25.5703 26.1986 25.5703 24.7319ZM22.8203 12.7319C15.9866 12.7319 10.4453 18.1053 10.4453 24.7319H6.32031L11.8203 30.0653L17.3203 24.7319H13.1953C13.1953 19.5719 17.4991 15.3986 22.8203 15.3986C28.1416 15.3986 32.4453 19.5719 32.4453 24.7319C32.4453 29.8919 28.1416 34.0653 22.8203 34.0653C20.7441 34.0653 18.8191 33.4119 17.2378 32.3319L15.2853 34.2519C17.3753 35.7986 19.9878 36.7319 22.8203 36.7319C29.6541 36.7319 35.1953 31.3586 35.1953 24.7319C35.1953 18.1053 29.6541 12.7319 22.8203 12.7319Z" fill="black"/>
</svg>
