<svg width="38" height="38" viewBox="0 0 38 38" fill="none" xmlns="http://www.w3.org/2000/svg">
<path d="M25.5041 12.903C23.7004 11.0992 21.3416 10.1896 18.9674 10.1896V19.4396L12.4308 25.9763C16.0383 29.5838 21.8966 29.5838 25.5195 25.9763C29.127 22.3688 29.127 16.5105 25.5041 12.903ZM18.9674 4.02295C10.4574 4.02295 3.55078 10.9296 3.55078 19.4396C3.55078 27.9496 10.4574 34.8563 18.9674 34.8563C27.4774 34.8563 34.3841 27.9496 34.3841 19.4396C34.3841 10.9296 27.4774 4.02295 18.9674 4.02295ZM18.9674 31.773C12.1533 31.773 6.63411 26.2538 6.63411 19.4396C6.63411 12.6254 12.1533 7.10628 18.9674 7.10628C25.7816 7.10628 31.3008 12.6254 31.3008 19.4396C31.3008 26.2538 25.7816 31.773 18.9674 31.773Z" fill="white"/>
</svg>
