<svg width="30" height="33" viewBox="0 0 30 33" fill="none" xmlns="http://www.w3.org/2000/svg">
<g id="Order">
<path id="Vector" opacity="0.7" d="M3.32965 15.5161L2.79034 15.415L3.32965 15.5161C3.67266 13.6867 3.92163 12.3641 4.24076 11.3619C4.55528 10.3742 4.91947 9.76137 5.45465 9.31721C5.98983 8.87306 6.65925 8.62804 7.68802 8.50093C8.73187 8.37196 10.0776 8.37098 11.9389 8.37098H18.2077C20.069 8.37098 21.4148 8.37196 22.4586 8.50093C23.4874 8.62803 24.1568 8.87306 24.692 9.31722C25.2272 9.76137 25.5914 10.3742 25.9059 11.3619C26.225 12.3641 26.4739 13.6867 26.8169 15.5161L27.9804 21.7215C28.4623 24.2913 28.8115 26.1608 28.8743 27.5993C28.9364 29.0227 28.7115 29.9204 28.138 30.6115C27.5645 31.3025 26.7237 31.689 25.3132 31.8902C23.8877 32.0936 21.9859 32.095 19.3712 32.095H10.7754C8.16076 32.095 6.25901 32.0936 4.8335 31.8902C3.42299 31.689 2.58215 31.3025 2.00862 30.6114C1.43509 29.9204 1.2102 29.0227 1.27233 27.5993C1.33512 26.1608 1.68429 24.2913 2.16615 21.7215L3.32965 15.5161Z" stroke="white" stroke-width="1.09743"/>
<path id="Vector_2" d="M15.0736 2.20847C12.8429 2.20847 11.0344 4.01689 11.0344 6.24769V7.25098C10.5985 7.25198 10.1892 7.25449 9.80482 7.26083V6.24769C9.80482 3.33781 12.1637 0.97889 15.0736 0.97889C17.9836 0.97889 20.3424 3.33781 20.3424 6.24769V7.26079C19.958 7.25446 19.5487 7.25195 19.1128 7.25094V6.24769C19.1128 4.01689 17.3044 2.20847 15.0736 2.20847Z" stroke="white" stroke-width="1.09743"/>
<path id="Vector_3" d="M11.2624 21.5791L11.2624 21.5791C11.1493 21.259 10.7981 21.0912 10.4779 21.2042L11.2624 21.5791ZM11.2624 21.5791C11.8174 23.149 13.3145 24.2719 15.0719 24.2719C16.8293 24.2719 18.3265 23.149 18.8815 21.5791L18.8815 21.579M11.2624 21.5791L18.8815 21.579M18.8815 21.579C18.9946 21.259 19.3458 21.0912 19.6659 21.2042L18.8815 21.579ZM20.0407 21.9889L20.0408 21.9888C20.1539 21.6688 19.9863 21.3176 19.666 21.2043L20.0407 21.9889ZM20.0407 21.9889C19.3177 24.0347 17.3667 25.5015 15.0719 25.5015C12.7772 25.5015 10.8262 24.0347 10.1031 21.9888L10.1031 21.9888M20.0407 21.9889L10.1031 21.9888M10.1031 21.9888C9.98998 21.6688 10.1577 21.3176 10.4778 21.2043L10.1031 21.9888Z" stroke="white" stroke-width="1.09743"/>
</g>
</svg>
