<svg width="50" height="32" viewBox="0 0 50 32" fill="none" xmlns="http://www.w3.org/2000/svg">
<path d="M40.1277 7.52231C40.1277 10.9414 37.3905 13.6965 33.9758 13.6965C30.5589 13.6965 27.8017 10.9392 27.8017 7.52231C27.8017 4.10542 30.5589 1.34814 33.9758 1.34814C37.3905 1.34814 40.1277 4.10324 40.1277 7.52231ZM22.33 7.52231C22.33 10.9414 19.5928 13.6965 16.178 13.6965C12.7611 13.6965 10.0039 10.9392 10.0039 7.52231C10.0039 4.10542 12.7611 1.34814 16.178 1.34814C19.5928 1.34814 22.33 4.10324 22.33 7.52231ZM1.10498 26.4325C1.10498 25.3203 1.65827 24.3096 2.6483 23.3965C3.64174 22.4803 5.04125 21.6967 6.63342 21.0596C9.81857 19.7849 13.6487 19.1459 16.178 19.1459C18.7074 19.1459 22.5375 19.7849 25.7227 21.0596C27.3148 21.6967 28.7143 22.4803 29.7078 23.3965C30.6978 24.3096 31.2511 25.3203 31.2511 26.4325V31.4943H1.10498V26.4325ZM36.7005 26.4325C36.7005 23.3986 35.2561 21.0063 33.1401 19.1674C33.4333 19.1536 33.7129 19.1459 33.9758 19.1459C36.5052 19.1459 40.3353 19.7849 43.5204 21.0596C45.1126 21.6967 46.5121 22.4803 47.5056 23.3965C48.4956 24.3096 49.0489 25.3203 49.0489 26.4325V31.4943H36.7005V26.4325Z" stroke="white"/>
</svg>
