<svg width="21" height="21" viewBox="0 0 21 21" fill="none" xmlns="http://www.w3.org/2000/svg">
<path d="M16.6294 4.65332L4.12939 4.65332C3.63211 4.65332 3.1552 4.85086 2.80357 5.2025C2.45194 5.55413 2.25439 6.03104 2.25439 6.52832L2.25439 15.2783C2.25439 15.7756 2.45194 16.2525 2.80357 16.6041C3.1552 16.9558 3.63211 17.1533 4.12939 17.1533L16.6294 17.1533C17.1267 17.1533 17.6036 16.9558 17.9552 16.6041C18.3069 16.2525 18.5044 15.7756 18.5044 15.2783L18.5044 6.52832C18.5044 6.03104 18.3069 5.55413 17.9552 5.2025C17.6036 4.85086 17.1267 4.65332 16.6294 4.65332ZM3.50439 8.40332L17.2544 8.40332V9.65332H13.4411C13.153 9.65348 12.8737 9.75318 12.6507 9.93554C12.4276 10.1179 12.2743 10.3717 12.2169 10.6541C12.1293 11.0763 11.899 11.4554 11.5645 11.7276C11.2301 11.9998 10.8121 12.1484 10.381 12.1484C9.94978 12.1484 9.53178 11.9998 9.19737 11.7276C8.86296 11.4554 8.63257 11.0763 8.54502 10.6541C8.48747 10.3712 8.33378 10.117 8.11005 9.93455C7.88632 9.75213 7.60635 9.65276 7.31768 9.65332H3.50439L3.50439 8.40332ZM4.12939 5.90332L16.6294 5.90332C16.7952 5.90332 16.9541 5.96917 17.0713 6.08638C17.1885 6.20359 17.2544 6.36256 17.2544 6.52832V7.15332L3.50439 7.15332L3.50439 6.52832C3.50439 6.36256 3.57024 6.20359 3.68745 6.08638C3.80466 5.96917 3.96363 5.90332 4.12939 5.90332ZM16.6294 15.9033L4.12939 15.9033C3.96363 15.9033 3.80466 15.8375 3.68745 15.7203C3.57024 15.6031 3.50439 15.4441 3.50439 15.2783L3.50439 10.9033H7.31689C7.46072 11.6093 7.84409 12.244 8.4021 12.6998C8.96012 13.1556 9.65849 13.4045 10.379 13.4045C11.0995 13.4045 11.7979 13.1556 12.3559 12.6998C12.9139 12.244 13.2973 11.6093 13.4411 10.9033H17.2544V15.2783C17.2544 15.4441 17.1885 15.6031 17.0713 15.7203C16.9541 15.8375 16.7952 15.9033 16.6294 15.9033Z" fill="#565E6D"/>
</svg>
