<svg width="21" height="21" viewBox="0 0 21 21" fill="none" xmlns="http://www.w3.org/2000/svg">
<path d="M7.87939 9.02832C7.87939 8.86256 7.94524 8.70359 8.06245 8.58638C8.17966 8.46917 8.33863 8.40332 8.50439 8.40332L13.5044 8.40332C13.6702 8.40332 13.8291 8.46917 13.9463 8.58638C14.0635 8.70359 14.1294 8.86256 14.1294 9.02832C14.1294 9.19408 14.0635 9.35305 13.9463 9.47026C13.8291 9.58747 13.6702 9.65332 13.5044 9.65332L8.50439 9.65332C8.33863 9.65332 8.17966 9.58747 8.06245 9.47026C7.94524 9.35305 7.87939 9.19408 7.87939 9.02832ZM8.50439 12.1533L13.5044 12.1533C13.6702 12.1533 13.8291 12.0875 13.9463 11.9703C14.0635 11.8531 14.1294 11.6941 14.1294 11.5283C14.1294 11.3626 14.0635 11.2036 13.9463 11.0864C13.8291 10.9692 13.6702 10.9033 13.5044 10.9033L8.50439 10.9033C8.33863 10.9033 8.17966 10.9692 8.06245 11.0864C7.94524 11.2036 7.87939 11.3626 7.87939 11.5283C7.87939 11.6941 7.94524 11.8531 8.06245 11.9703C8.17966 12.0875 8.33863 12.1533 8.50439 12.1533ZM18.5044 15.9033C18.5044 16.5664 18.241 17.2022 17.7722 17.6711C17.3033 18.1399 16.6674 18.4033 16.0044 18.4033L7.25439 18.4033C6.59135 18.4033 5.95547 18.1399 5.48663 17.6711C5.01779 17.2022 4.75439 16.5664 4.75439 15.9033L4.75439 5.90332C4.75439 5.5718 4.6227 5.25386 4.38828 5.01944C4.15386 4.78502 3.83592 4.65332 3.50439 4.65332C3.17287 4.65332 2.85493 4.78502 2.62051 5.01944C2.38609 5.25386 2.25439 5.5718 2.25439 5.90332C2.25439 6.35176 2.63174 6.65488 2.63564 6.65801C2.73908 6.73761 2.81501 6.8476 2.85276 6.97254C2.89051 7.09748 2.8882 7.23111 2.84615 7.35467C2.8041 7.47823 2.72442 7.58553 2.6183 7.66151C2.51217 7.73749 2.38492 7.77834 2.25439 7.77832C2.11924 7.77855 1.98775 7.73436 1.88018 7.65254C1.78955 7.58613 1.00439 6.9666 1.00439 5.90332C1.00439 5.24028 1.26779 4.60439 1.73663 4.13555C2.20547 3.66671 2.84135 3.40332 3.50439 3.40332L14.1294 3.40332C14.7924 3.40332 15.4283 3.66671 15.8972 4.13555C16.366 4.60439 16.6294 5.24028 16.6294 5.90332V14.0283H17.2544C17.3896 14.0283 17.5212 14.0722 17.6294 14.1533C17.7231 14.2205 18.5044 14.84 18.5044 15.9033ZM7.89971 14.4564C7.94241 14.3304 8.02391 14.2211 8.13253 14.1442C8.24115 14.0673 8.37132 14.0267 8.50439 14.0283L15.3794 14.0283L15.3794 5.90332C15.3794 5.5718 15.2477 5.25386 15.0133 5.01944C14.7789 4.78502 14.4609 4.65332 14.1294 4.65332L5.66768 4.65332C5.88872 5.03278 6.00493 5.46417 6.00439 5.90332L6.00439 15.9033C6.00439 16.2348 6.13609 16.5528 6.37051 16.7872C6.60493 17.0216 6.92287 17.1533 7.25439 17.1533C7.58592 17.1533 7.90386 17.0216 8.13828 16.7872C8.3727 16.5528 8.50439 16.2348 8.50439 15.9033C8.50439 15.4549 8.12705 15.1518 8.12314 15.1486C8.01663 15.0724 7.93742 14.964 7.89719 14.8394C7.85696 14.7148 7.85784 14.5805 7.89971 14.4564ZM17.2544 15.9033C17.2466 15.6718 17.1572 15.4504 17.0021 15.2783L9.6583 15.2783C9.72112 15.4807 9.75299 15.6914 9.75283 15.9033C9.75343 16.3423 9.63779 16.7736 9.41768 17.1533L16.0044 17.1533C16.3359 17.1533 16.6539 17.0216 16.8883 16.7872C17.1227 16.5528 17.2544 16.2348 17.2544 15.9033Z" fill="#565E6D"/>
</svg>
