<svg width="21" height="21" viewBox="0 0 21 21" fill="none" xmlns="http://www.w3.org/2000/svg">
<path d="M10.3794 3.04639L10.3794 18.7607" stroke="#565E6D" stroke-width="1.71429" stroke-miterlimit="10"/>
<path d="M2.52246 10.9033L18.2367 10.9033" stroke="#565E6D" stroke-width="1.71429" stroke-miterlimit="10"/>
<path d="M10.3793 18.7607C12.5489 18.7607 14.3078 15.2429 14.3078 10.9035C14.3078 6.56415 12.5489 3.04639 10.3793 3.04639C8.20956 3.04639 6.45068 6.56415 6.45068 10.9035C6.45068 15.2429 8.20956 18.7607 10.3793 18.7607Z" stroke="#565E6D" stroke-width="1.71429" stroke-miterlimit="10" stroke-linecap="square"/>
<path d="M10.3796 18.7607C14.719 18.7607 18.2367 15.2429 18.2367 10.9035C18.2367 6.56415 14.719 3.04639 10.3796 3.04639C6.04022 3.04639 2.52246 6.56415 2.52246 10.9035C2.52246 15.2429 6.04022 18.7607 10.3796 18.7607Z" stroke="#565E6D" stroke-width="1.71429" stroke-miterlimit="10" stroke-linecap="square"/>
</svg>
