<svg width="21" height="21" viewBox="0 0 21 21" fill="none" xmlns="http://www.w3.org/2000/svg">
<path d="M15.3792 10.1892V8.04639C15.3792 6.7203 14.8524 5.44853 13.9147 4.51085C12.977 3.57317 11.7053 3.04639 10.3792 3.04639C9.0531 3.04639 7.78133 3.57317 6.84365 4.51085C5.90597 5.44853 5.37919 6.7203 5.37919 8.04639V10.1892C5.37919 12.5464 3.23633 13.1178 3.23633 14.475C3.23633 15.6892 6.02204 16.6178 10.3792 16.6178C14.7363 16.6178 17.522 15.6892 17.522 14.475C17.522 13.1178 15.3792 12.5464 15.3792 10.1892Z" stroke="#565E6D" stroke-width="1.71429" stroke-miterlimit="10" stroke-linecap="square"/>
<path d="M10.3796 18.046C9.65747 18.046 8.9789 18.0218 8.34033 17.9746C8.47647 18.4089 8.74769 18.7884 9.11448 19.0578C9.48128 19.3272 9.92451 19.4725 10.3796 19.4725C10.8347 19.4725 11.278 19.3272 11.6448 19.0578C12.0115 18.7884 12.2828 18.4089 12.4189 17.9746C11.7803 18.0218 11.1018 18.046 10.3796 18.046Z" fill="#565E6D"/>
</svg>
