<svg width="21" height="21" viewBox="0 0 21 21" fill="none" xmlns="http://www.w3.org/2000/svg">
<path d="M15.3793 10.189L5.37926 10.189C4.59028 10.189 3.95068 10.8286 3.95068 11.6175L3.95068 17.3318C3.95068 18.1208 4.59028 18.7604 5.37926 18.7604L15.3793 18.7604C16.1682 18.7604 16.8078 18.1208 16.8078 17.3318V11.6175C16.8078 10.8286 16.1682 10.189 15.3793 10.189Z" stroke="#565E6D" stroke-width="1.71429" stroke-miterlimit="10" stroke-linecap="square"/>
<path d="M10.3793 15.9035C11.1682 15.9035 11.8078 15.2639 11.8078 14.475C11.8078 13.686 11.1682 13.0464 10.3793 13.0464C9.59028 13.0464 8.95068 13.686 8.95068 14.475C8.95068 15.2639 9.59028 15.9035 10.3793 15.9035Z" stroke="#565E6D" stroke-width="1.71429" stroke-miterlimit="10" stroke-linecap="square"/>
<path d="M13.951 7.33179V6.6175C13.9603 5.67981 13.5968 4.77681 12.9405 4.10707C12.2841 3.43733 11.3886 3.05569 10.451 3.04607H10.3795C9.44185 3.03674 8.53884 3.40022 7.8691 4.05656C7.19936 4.71291 6.81772 5.60839 6.80811 6.54607V7.33179" stroke="#565E6D" stroke-width="1.71429" stroke-miterlimit="10" stroke-linecap="square"/>
</svg>
