<svg width="21" height="21" viewBox="0 0 21 21" fill="none" xmlns="http://www.w3.org/2000/svg">
<path d="M15.3714 16.9713C15.2749 15.2656 14.3021 14.7242 12.8792 14.2499C11.7921 13.8878 11.4928 12.7463 11.4106 12.1406" stroke="#171A1F" stroke-width="1.71429" stroke-miterlimit="10"/>
<path d="M9.34717 12.1396C9.26646 12.7425 8.97289 13.8854 7.87931 14.2496C6.45646 14.7239 5.48217 15.2639 5.38574 16.9696" stroke="#171A1F" stroke-width="1.71429" stroke-miterlimit="10"/>
<path d="M10.3796 12.3319C8.80175 12.3319 7.52246 11.0526 7.52246 9.47475V8.76046C7.52246 7.18261 8.80175 5.90332 10.3796 5.90332C11.9575 5.90332 13.2367 7.18261 13.2367 8.76046V9.47475C13.2367 11.0526 11.9575 12.3319 10.3796 12.3319Z" stroke="#171A1F" stroke-width="1.71429" stroke-miterlimit="10" stroke-linecap="square"/>
<path d="M10.3796 18.7607C14.719 18.7607 18.2367 15.2429 18.2367 10.9035C18.2367 6.56415 14.719 3.04639 10.3796 3.04639C6.04022 3.04639 2.52246 6.56415 2.52246 10.9035C2.52246 15.2429 6.04022 18.7607 10.3796 18.7607Z" stroke="#171A1F" stroke-width="1.71429" stroke-miterlimit="10" stroke-linecap="square"/>
</svg>
