<svg width="84" height="76" viewBox="0 0 84 76" fill="none" xmlns="http://www.w3.org/2000/svg">
<g id="Group 3">
<rect id="Rectangle 6" x="0.581543" y="0.880371" width="83.3941" height="74.8229" rx="13.9602" fill="#2E90EB"/>
<g id="Vector">
<path d="M48.7338 44.0459L55.1327 49.8287L48.7338 44.0459ZM52.1754 36.5618C52.1754 42.4235 46.8792 47.1753 40.346 47.1753C33.8128 47.1753 28.5166 42.4235 28.5166 36.5618C28.5166 30.7001 33.8128 25.9482 40.346 25.9482C46.8792 25.9482 52.1754 30.7001 52.1754 36.5618Z" fill="#2E90EB"/>
<path d="M48.7338 44.0459L55.1327 49.8287M52.1754 36.5618C52.1754 42.4235 46.8792 47.1753 40.346 47.1753C33.8128 47.1753 28.5166 42.4235 28.5166 36.5618C28.5166 30.7001 33.8128 25.9482 40.346 25.9482C46.8792 25.9482 52.1754 30.7001 52.1754 36.5618Z" stroke="white" stroke-width="2.34628" stroke-linecap="round" stroke-linejoin="round"/>
</g>
</g>
</svg>
