<svg width="30" height="30" viewBox="0 0 30 30" fill="none" xmlns="http://www.w3.org/2000/svg">
<path d="M21.5431 22.1097L27.7939 28.4058L21.5431 22.1097ZM24.9051 13.9613C24.9051 20.3433 19.7315 25.5169 13.3495 25.5169C6.96754 25.5169 1.79395 20.3433 1.79395 13.9613C1.79395 7.57936 6.96754 2.40576 13.3495 2.40576C19.7315 2.40576 24.9051 7.57936 24.9051 13.9613Z" fill="#2E90EB"/>
<path d="M21.5431 22.1097L27.7939 28.4058M24.9051 13.9613C24.9051 20.3433 19.7315 25.5169 13.3495 25.5169C6.96754 25.5169 1.79395 20.3433 1.79395 13.9613C1.79395 7.57936 6.96754 2.40576 13.3495 2.40576C19.7315 2.40576 24.9051 7.57936 24.9051 13.9613Z" stroke="white" stroke-width="2.88889" stroke-linecap="round" stroke-linejoin="round"/>
</svg>
