<svg width="31" height="32" viewBox="0 0 31 32" fill="none" xmlns="http://www.w3.org/2000/svg">
<path d="M27.3986 17.3602C27.4613 16.8586 27.5084 16.3569 27.5084 15.8239C27.5084 15.2909 27.4613 14.7892 27.3986 14.2876L30.7064 11.7009C31.0043 11.4657 31.0827 11.0424 30.8946 10.6975L27.7592 5.27333C27.6181 5.0225 27.3516 4.88141 27.0694 4.88141C26.9753 4.88141 26.8813 4.89708 26.8029 4.92844L22.8993 6.49613C22.0841 5.86905 21.2062 5.35171 20.2499 4.95979L19.6542 0.805404C19.6072 0.429158 19.278 0.146973 18.886 0.146973H12.6153C12.2233 0.146973 11.8941 0.429158 11.8471 0.805404L11.2514 4.95979C10.2951 5.35171 9.41717 5.88473 8.60197 6.49613L4.69842 4.92844C4.60436 4.89708 4.51029 4.88141 4.41623 4.88141C4.14972 4.88141 3.88322 5.0225 3.74212 5.27333L0.606738 10.6975C0.402937 11.0424 0.496999 11.4657 0.794861 11.7009L4.10269 14.2876C4.03999 14.7892 3.99296 15.3066 3.99296 15.8239C3.99296 16.3412 4.03999 16.8586 4.10269 17.3602L0.794861 19.9469C0.496999 20.1821 0.418614 20.6054 0.606738 20.9503L3.74212 26.3745C3.88322 26.6253 4.14972 26.7664 4.43191 26.7664C4.52597 26.7664 4.62003 26.7507 4.69842 26.7194L8.60197 25.1517C9.41717 25.7788 10.2951 26.2961 11.2514 26.688L11.8471 30.8424C11.8941 31.2187 12.2233 31.5008 12.6153 31.5008H18.886C19.278 31.5008 19.6072 31.2187 19.6542 30.8424L20.2499 26.688C21.2062 26.2961 22.0841 25.7631 22.8993 25.1517L26.8029 26.7194C26.897 26.7507 26.991 26.7664 27.0851 26.7664C27.3516 26.7664 27.6181 26.6253 27.7592 26.3745L30.8946 20.9503C31.0827 20.6054 31.0043 20.1821 30.7064 19.9469L27.3986 17.3602ZM24.2946 14.6795C24.3573 15.1655 24.373 15.4947 24.373 15.8239C24.373 16.1531 24.3416 16.498 24.2946 16.9683L24.0751 18.7398L25.4704 19.8372L27.1635 21.1541L26.0661 23.051L24.0751 22.2514L22.4447 21.593L21.0338 22.659C20.3597 23.1607 19.7169 23.537 19.0742 23.8035L17.4124 24.4776L17.1616 26.2491L16.848 28.3655H14.6533L14.1046 24.4776L12.4428 23.8035C11.7687 23.5213 11.1416 23.1607 10.5146 22.6904L9.08796 21.593L7.4262 22.2671L5.43523 23.0666L4.33785 21.1697L6.03096 19.8529L7.4262 18.7555L7.20673 16.984C7.1597 16.498 7.12834 16.1374 7.12834 15.8239C7.12834 15.5104 7.1597 15.1498 7.20673 14.6795L7.4262 12.908L6.03096 11.8106L4.33785 10.4937L5.43523 8.59684L7.4262 9.39636L9.0566 10.0548L10.4675 8.98876C11.1416 8.4871 11.7844 8.11085 12.4271 7.84435L14.0889 7.17024L14.3397 5.39875L14.6533 3.28236H16.8324L17.3811 7.17024L19.0428 7.84435C19.7169 8.12653 20.344 8.4871 20.9711 8.95741L22.3977 10.0548L24.0594 9.38069L26.0504 8.58116L27.1478 10.4781L25.4704 11.8106L24.0751 12.908L24.2946 14.6795ZM15.7507 9.55313C12.2861 9.55313 9.47988 12.3593 9.47988 15.8239C9.47988 19.2885 12.2861 22.0947 15.7507 22.0947C19.2153 22.0947 22.0214 19.2885 22.0214 15.8239C22.0214 12.3593 19.2153 9.55313 15.7507 9.55313ZM15.7507 18.9593C14.0262 18.9593 12.6153 17.5484 12.6153 15.8239C12.6153 14.0994 14.0262 12.6885 15.7507 12.6885C17.4751 12.6885 18.886 14.0994 18.886 15.8239C18.886 17.5484 17.4751 18.9593 15.7507 18.9593Z" fill="black"/>
</svg>
