<svg width="22" height="21" viewBox="0 0 22 21" fill="none" xmlns="http://www.w3.org/2000/svg">
<path d="M16.0462 12.9369L15.8645 13.119L15.9069 13.3726L16.9814 19.7924C16.9878 19.8407 16.9884 19.8847 16.9884 19.9743C16.9884 20.0215 16.983 20.0606 16.9754 20.0899C16.9724 20.1012 16.9694 20.11 16.9667 20.1169C16.9098 20.1146 16.8272 20.0908 16.732 20.0338L16.7225 20.0282L16.7128 20.0229L11.0966 16.9893L10.859 16.861L10.6214 16.9893L5.00516 20.0229L5.00515 20.0229L5.00088 20.0252C4.86768 20.0989 4.79354 20.117 4.74263 20.117C4.73904 20.1097 4.73454 20.0986 4.73024 20.083C4.72255 20.0551 4.71712 20.0182 4.71712 19.9743C4.71712 19.9312 4.72192 19.8968 4.73377 19.8119C4.73461 19.8059 4.73549 19.7996 4.73641 19.793L5.81098 13.3726L5.8535 13.1186L5.67129 12.9364L1.12828 8.39599C1.06723 8.32727 1.01904 8.26469 0.986813 8.20805C0.959811 8.16058 0.953839 8.13434 0.952521 8.12579C0.955871 8.12285 0.960776 8.11892 0.967708 8.11417C1.01805 8.07968 1.11084 8.0453 1.23043 8.02529L7.50563 7.08752L7.76749 7.04839L7.88229 6.80981L10.6966 0.961113L10.6967 0.961143L10.7002 0.953615C10.7399 0.867351 10.7901 0.792203 10.837 0.746145C10.8457 0.737575 10.8531 0.731209 10.859 0.72652C10.8649 0.731209 10.8722 0.737577 10.881 0.746148C10.9279 0.792204 10.978 0.867348 11.0178 0.953596L11.0177 0.953625L11.0213 0.961112L13.8357 6.80981L13.9505 7.04839L14.2123 7.08752L20.4857 8.02502C20.5993 8.04497 20.6939 8.07923 20.7478 8.11568C20.7555 8.12093 20.7611 8.12533 20.7649 8.12866C20.7627 8.13909 20.7557 8.16326 20.7324 8.20318C20.6998 8.25895 20.6492 8.32194 20.5843 8.38888L16.0462 12.9369ZM10.8779 0.714316C10.8779 0.714382 10.8772 0.714733 10.8758 0.715172C10.8772 0.71447 10.8779 0.71425 10.8779 0.714316ZM10.8421 0.715173C10.8407 0.714734 10.84 0.714383 10.84 0.714317C10.84 0.714251 10.8407 0.714471 10.8421 0.715173Z" fill="#FFB33E" stroke="black"/>
</svg>
