<svg width="17" height="17" viewBox="0 0 17 17" fill="none" xmlns="http://www.w3.org/2000/svg">
<path d="M8.1718 2.31861C8.36013 1.8658 9.0016 1.86581 9.18993 2.31861L10.739 6.04301C10.8184 6.2339 10.9979 6.36433 11.204 6.38085L15.2248 6.70319C15.7137 6.74239 15.9119 7.35244 15.5394 7.67146L12.476 10.2957C12.319 10.4301 12.2504 10.6412 12.2984 10.8423L13.2343 14.7659C13.3481 15.2429 12.8291 15.6199 12.4107 15.3643L8.96827 13.2617C8.79187 13.154 8.56993 13.154 8.39353 13.2617L4.95113 15.3643C4.53262 15.6199 4.01367 15.2429 4.12746 14.7659L5.06339 10.8423C5.11136 10.6412 5.04279 10.4301 4.88577 10.2957L1.82235 7.67146C1.4499 7.35244 1.64812 6.74239 2.13697 6.70319L6.15777 6.38085C6.36385 6.36433 6.54337 6.2339 6.62277 6.04301L8.1718 2.31861Z" fill="url(#paint0_linear_471_674)"/>
<defs>
<linearGradient id="paint0_linear_471_674" x1="1.62891" y1="1.979" x2="15.7329" y2="1.979" gradientUnits="userSpaceOnUse">
<stop offset="0.4999" stop-color="#9095A0"/>
<stop offset="0.5" stop-color="#9095A0"/>
</linearGradient>
</defs>
</svg>
