<svg width="28" height="28" viewBox="0 0 28 28" fill="none" xmlns="http://www.w3.org/2000/svg">
<g filter="url(#filter0_d_45_2498)">
<path d="M19.1169 2.39404H9.47033C5.28019 2.39404 2.78223 4.89204 2.78223 9.08222V18.7174C2.78223 22.919 5.28019 25.417 9.47033 25.417H19.1053C23.2955 25.417 25.7935 22.919 25.7935 18.7289V9.08222C25.805 4.89204 23.307 2.39404 19.1169 2.39404ZM19.9111 13.3645C19.9111 13.8135 19.5543 14.1703 19.1053 14.1703C18.6564 14.1703 18.2996 13.8135 18.2996 13.3645V13.1573L15.1685 16.2884C14.9958 16.4611 14.7656 16.5417 14.5238 16.5187C14.2821 16.4956 14.0634 16.369 13.9367 16.1618L12.7626 14.412L10.0229 17.1518C9.86172 17.3129 9.66603 17.382 9.45882 17.382C9.25162 17.382 9.04441 17.3014 8.89476 17.1518C8.58396 16.841 8.58396 16.3345 8.89476 16.0121L12.3252 12.5817C12.4978 12.409 12.7281 12.3285 12.9698 12.3515C13.2115 12.3745 13.4302 12.5011 13.5569 12.7083L14.731 14.4581L17.1599 12.0292H16.9527C16.5038 12.0292 16.1469 11.6723 16.1469 11.2234C16.1469 10.7744 16.5038 10.4176 16.9527 10.4176H19.0938C19.1974 10.4176 19.301 10.4406 19.4046 10.4751C19.6003 10.5557 19.7615 10.7169 19.8421 10.9126C19.8881 11.0162 19.8996 11.1198 19.8996 11.2234V13.3645H19.9111Z" fill="white"/>
</g>
<defs>
<filter id="filter0_d_45_2498" x="0.750797" y="0.362613" width="27.0741" height="27.0858" filterUnits="userSpaceOnUse" color-interpolation-filters="sRGB">
<feFlood flood-opacity="0" result="BackgroundImageFix"/>
<feColorMatrix in="SourceAlpha" type="matrix" values="0 0 0 0 0 0 0 0 0 0 0 0 0 0 0 0 0 0 127 0" result="hardAlpha"/>
<feOffset/>
<feGaussianBlur stdDeviation="1.01571"/>
<feComposite in2="hardAlpha" operator="out"/>
<feColorMatrix type="matrix" values="0 0 0 0 1 0 0 0 0 1 0 0 0 0 1 0 0 0 0.25 0"/>
<feBlend mode="normal" in2="BackgroundImageFix" result="effect1_dropShadow_45_2498"/>
<feBlend mode="normal" in="SourceGraphic" in2="effect1_dropShadow_45_2498" result="shape"/>
</filter>
</defs>
</svg>
